<?xml version="1.0" standalone="no"?>
<!DOCTYPE svg PUBLIC "-//W3C//DTD SVG 20010904//EN"
 "http://www.w3.org/TR/2001/REC-SVG-20010904/DTD/svg10.dtd">
<svg version="1.0" xmlns="http://www.w3.org/2000/svg"
 width="512.000000pt" height="512.000000pt" viewBox="0 0 512.000000 512.000000"
 preserveAspectRatio="xMidYMid meet">
<metadata>
Created by potrace 1.11, written by Peter Selinger 2001-2013
</metadata>
<g transform="translate(0.000000,512.000000) scale(0.100000,-0.100000)"
fill="#000000" stroke="none">
<path d="M2890 4881 c-68 -22 -115 -58 -155 -116 -8 -11 -86 -207 -173 -435
-88 -228 -165 -426 -170 -440 -20 -49 -72 -189 -72 -196 0 -3 203 196 450 443
l450 450 0 49 c0 89 -60 183 -143 225 -45 23 -145 34 -187 20z"/>
<path d="M2120 4806 c-62 -13 -127 -54 -160 -103 -19 -28 -134 -317 -284 -713
-24 -63 -53 -139 -65 -167 -11 -29 -17 -53 -13 -53 15 0 128 -115 158 -161 62
-91 99 -200 108 -314 2 -27 4 -52 5 -54 1 -2 32 27 69 65 67 68 69 72 131 234
34 91 66 174 71 185 9 20 172 443 216 560 12 33 36 97 52 141 23 62 30 95 28
136 -7 131 -101 229 -241 252 -11 2 -45 -2 -75 -8z"/>
<path d="M3630 4612 c-8 -2 -31 -11 -50 -20 -22 -9 -381 -361 -992 -971 l-958
-956 0 315 c0 342 -6 394 -53 471 -39 65 -71 97 -135 135 -114 69 -236 76
-359 20 -104 -48 -191 -160 -210 -271 -10 -55 -9 -1525 1 -1565 3 -13 8 -41
11 -63 17 -113 99 -296 185 -412 8 -11 196 -202 418 -425 285 -287 425 -420
480 -458 116 -79 277 -143 397 -158 22 -3 51 -7 65 -9 47 -9 175 -6 240 4 172
28 305 81 445 179 83 58 1952 1930 1976 1979 91 187 -57 401 -262 380 -32 -4
-75 -16 -96 -28 -21 -11 -217 -199 -435 -417 -393 -392 -397 -396 -408 -368
-5 15 -10 29 -10 31 0 3 -12 29 -26 60 -15 31 -25 58 -23 60 2 2 248 248 545
547 572 573 569 570 577 668 4 45 -19 125 -49 169 -29 43 -93 87 -148 102 -51
14 -133 6 -182 -17 -24 -11 -235 -215 -562 -542 -463 -463 -525 -522 -540
-510 -9 7 -38 34 -64 61 l-48 47 650 650 c667 667 682 684 692 770 5 43 -7
114 -27 157 -21 44 -98 109 -150 126 -57 20 -144 14 -199 -13 -32 -15 -230
-207 -704 -681 -363 -362 -665 -659 -671 -659 -6 0 -34 11 -61 24 -28 14 -65
28 -82 31 -30 7 -23 14 535 574 396 396 572 579 587 611 30 59 31 157 3 220
-40 91 -131 151 -232 155 -31 1 -63 0 -71 -3z"/>
<path d="M273 2926 c-92 -30 -188 -109 -230 -190 -51 -99 -53 -228 -5 -341 30
-70 167 -381 215 -485 13 -30 49 -111 80 -180 30 -69 64 -145 75 -170 11 -25
38 -85 60 -135 41 -93 74 -165 123 -273 90 -197 271 -384 464 -480 39 -19 459
-182 469 -182 3 0 -128 134 -292 298 -163 164 -323 333 -355 375 -78 103 -138
219 -182 349 -60 181 -65 240 -65 819 0 587 10 527 -95 575 -72 33 -194 42
-262 20z"/>
</g>
</svg>
