<svg width="16" height="23" viewBox="0 0 16 23" fill="none" xmlns="http://www.w3.org/2000/svg">
<path d="M15.4286 9.78572C15.4286 9.31697 15.0402 8.92858 14.5714 8.92858C14.1027 8.92858 13.7143 9.31697 13.7143 9.78572V11.5C13.7143 14.808 11.0223 17.5 7.71429 17.5C4.40625 17.5 1.71429 14.808 1.71429 11.5V9.78572C1.71429 9.31697 1.32589 8.92858 0.857143 8.92858C0.388393 8.92858 0 9.31697 0 9.78572V11.5C0 15.4643 3 18.7321 6.85714 19.1607V20.9286H3.42857C2.95982 20.9286 2.57143 21.317 2.57143 21.7857C2.57143 22.2545 2.95982 22.6429 3.42857 22.6429H12C12.4688 22.6429 12.8571 22.2545 12.8571 21.7857C12.8571 21.317 12.4688 20.9286 12 20.9286H8.57143V19.1607C12.4286 18.7321 15.4286 15.4643 15.4286 11.5V9.78572ZM12 4.64286C12 2.28572 10.0714 0.357147 7.71429 0.357147C5.35714 0.357147 3.42857 2.28572 3.42857 4.64286V11.5C3.42857 13.8571 5.35714 15.7857 7.71429 15.7857C10.0714 15.7857 12 13.8571 12 11.5V4.64286Z" fill="white"/>
</svg>
