<svg width="2323" height="2874" viewBox="0 0 2323 2874" fill="none" xmlns="http://www.w3.org/2000/svg">
<path d="M1161.4 2699.76C1802.82 2699.76 2322.8 2179.78 2322.8 1538.36C2322.8 896.935 1802.82 376.958 1161.4 376.958C519.976 376.958 0 896.935 0 1538.36C0 2179.78 519.976 2699.76 1161.4 2699.76Z" fill="#351F5D"/>
<path d="M274 892.158C307.8 934.958 354.5 970.358 371.7 1024.06C375.3 986.758 401.1 955.558 418.2 923.258C392.5 885.158 373.1 842.458 346.3 805.358C334.1 788.558 254.9 709.758 262.9 688.958C246.2 732.458 228.2 801.858 246.3 846.358C253 863.058 262.8 878.058 274 892.158Z" fill="#3B5391"/>
<path d="M493.4 372.858C457.8 348.758 432.5 329.358 413.9 308.958C416.4 318.358 419.1 327.758 422 336.958C432 368.358 444.2 399.158 459.2 428.558C476.3 462.058 496.6 493.758 517.6 524.958C560.2 588.158 604.7 650.958 634.3 721.558C662.1 788.058 676.6 860.058 670.2 932.058C664.3 997.458 642.7 1059.56 611.9 1117.06C611.8 1117.56 611.7 1117.96 611.6 1118.46C673.9 1028.26 720.5 866.958 740.2 756.958C773.6 570.658 633.2 467.558 493.4 372.858Z" fill="#3089A2"/>
<path d="M585.3 914.958C582 838.958 567.6 763.258 538.4 692.758C523.4 656.558 505.5 621.758 485.1 588.358C464.8 555.158 442.9 522.958 421.5 490.458C400.9 459.158 381.7 426.958 361.7 395.258C341.4 363.158 321 330.758 305 296.258C303.8 293.558 302.5 290.958 301.3 288.258C277.5 381.758 260.6 477.558 262.8 573.558C265.7 697.658 350.3 772.058 451.1 830.758C500.5 859.458 538 865.758 565.8 919.458C574.4 935.958 581 954.358 585.8 973.758C586.3 954.058 586.2 934.458 585.3 914.958Z" fill="#3089A2"/>
<path d="M2161.6 1031.36C2161.1 1022.76 2160.3 1014.26 2159.4 1005.76C2093.5 1054.16 2046.9 1137.46 1984.8 1193.66C1941.6 1232.76 1924.4 1294.66 1902.7 1353.16C1934.2 1335.56 1964.1 1315.46 1991.7 1292.36C2022.8 1266.36 2051 1236.46 2073.1 1202.36C2095.2 1168.26 2110.7 1130.56 2119.1 1090.86C2119.4 1089.26 2121.7 1089.96 2121.5 1091.56C2108.8 1162.96 2068.6 1226.16 2016.4 1275.46C1981.8 1308.26 1942.5 1335.56 1900.7 1358.66C1888.4 1391.26 1874.5 1422.46 1853.5 1447.76C1936.4 1421.36 2021.7 1395.56 2079.7 1326.06C2146.5 1245.96 2167.9 1133.16 2161.6 1031.36Z" fill="#F9CA66"/>
<path d="M1968.4 1618.76C1995.4 1633.46 2013.4 1648.16 2038.3 1653.76C2128.6 1523.86 2186.4 1420.26 2186.4 1420.26C2070.2 1412.36 1941.7 1437.36 1820 1482.86C1807.3 1520.86 1817.5 1537.26 1788.8 1567.16C1777.2 1579.26 1768.2 1585.46 1757.1 1572.86C1742.6 1556.36 1749.1 1543.26 1765.5 1504.76C1729.3 1520.36 1693.9 1537.66 1660 1556.36C1658.8 1598.96 1682.2 1640.36 1664.7 1680.76C1658 1696.16 1651.7 1705.16 1636.9 1697.16C1614 1684.86 1614.1 1628.96 1618 1580.66C1574.5 1606.96 1534 1635.46 1497.7 1665.26C1498.8 1687.46 1501.2 1709.46 1506 1731.56C1511.2 1755.36 1526.4 1792.56 1510.7 1816.26C1496.7 1837.36 1489 1835.76 1475.9 1814.26C1460.4 1788.86 1459.5 1741.66 1460.4 1698.26C1361.2 1794.76 1156.5 2056.96 1332.7 2142.36C1471.6 2209.66 1632.6 2113.56 1777.1 1971.76C1755.1 1947.86 1730.1 1928.56 1696.2 1920.96C1675 1916.16 1657.9 1915.16 1637.3 1904.46C1586.1 1877.86 1591.7 1818.76 1656.8 1816.46C1729.9 1813.86 1759.7 1910.36 1833.3 1913.56C1844.4 1901.46 1855.3 1889.26 1866.1 1876.86C1850.7 1845.26 1823.3 1821.46 1781.8 1799.46C1762.8 1789.36 1723.4 1774.36 1725.9 1750.66C1729.6 1715.26 1790.4 1755.36 1804.8 1766.46C1831.2 1786.66 1844.1 1803.36 1880 1811.06C1891 1813.46 1903.6 1816.16 1916 1817.46C1948.1 1777.86 1978.4 1737.86 2006.2 1699.26C1990.4 1690.66 1972.8 1683.56 1953.2 1677.56C1928.3 1669.96 1878.1 1665.76 1873.2 1629.16C1865.7 1574.56 1948.4 1607.96 1968.4 1618.76ZM1728.9 1680.56C1626 1766.46 1539.3 1863.06 1442.3 1964.06C1389.6 2018.86 1370.8 2046.96 1312.3 2104.46C1311.6 2105.06 1310.7 2105.36 1309.9 2105.06C1309.5 2104.96 1309.1 2104.76 1308.8 2104.36C1307.8 2103.36 1307.8 2101.76 1308.8 2100.76C1367.3 2043.26 1384.7 2013.76 1437.4 1958.96C1534.4 1857.96 1619.3 1761.16 1722.5 1675.06C1838 1578.56 1954.5 1507.96 2084.6 1450.16C2085.9 1449.56 2087.4 1450.16 2087.9 1451.46C2088.5 1452.76 2087.9 1454.26 2086.6 1454.76C1956.9 1512.46 1844.1 1584.36 1728.9 1680.56Z" fill="#E05E5E"/>
<path d="M1793.7 717.058L1910.9 951.058L1770 963.058L1652.7 705.158L1793.7 717.058Z" fill="#351F5D"/>
<path d="M1709.1 709.958L1710.5 936.558L1590 924.658L1554.9 705.158L1709.1 709.958Z" fill="#351F5D"/>
<path d="M1699.6 269.558C1700.7 269.158 1701.9 268.858 1703.3 268.858C1707.6 268.858 1711.8 270.758 1715.9 268.958C1717.9 268.058 1718.2 267.058 1719 265.158C1720.1 262.358 1718.8 259.358 1719.3 256.458C1719.8 253.558 1721.7 250.858 1720.5 247.658C1719.4 244.658 1711.9 242.858 1709.8 245.358C1708.9 246.358 1708.6 249.358 1708 250.658C1707 252.858 1705.8 255.258 1704 256.958C1700.7 260.158 1696.9 261.158 1692.6 261.958C1689.3 262.658 1685.4 264.258 1684.7 267.958C1683.6 274.458 1691.2 272.358 1694.8 271.058C1696.6 270.758 1698 270.058 1699.6 269.558Z" fill="#E49D2C"/>
<path d="M1717.2 388.158C1736.4 381.758 1790.7 380.358 1810.7 378.458C1835.9 376.058 1887.4 420.958 1870.6 428.658C1835.7 444.658 1788.6 452.058 1737.9 470.458C1737.1 441.858 1732.3 413.358 1717.2 388.158Z" fill="#E49D2C"/>
<path d="M1744.6 262.658L1720.8 282.958L1830.1 438.558C1830.1 438.558 1871.8 440.458 1884.4 413.158C1897 385.858 1866.6 360.458 1854.3 350.058C1850 346.458 1744.6 262.658 1744.6 262.658Z" fill="#E49D2C"/>
<path d="M1527.8 709.258C1536.7 732.758 1545.3 756.458 1554.3 779.658C1568.3 780.058 1699.3 776.858 1699.6 780.658C1698.1 757.758 1693.1 733.258 1688 710.058C1708.9 726.558 1735.2 754.758 1759 765.458C1778.3 774.058 1848.5 756.758 1858.6 770.858C1827.2 727.058 1792.9 682.358 1766.7 634.158C1742.2 589.158 1723.6 534.958 1711.2 485.458C1716.3 483.358 1774.4 467.858 1773.7 465.758C1768.9 450.158 1769.4 433.058 1766.7 416.958C1764.4 403.158 1763.6 392.358 1764 378.358C1730.2 382.658 1643.3 391.158 1632.9 393.058C1565.3 404.958 1403.2 366.758 1418.4 484.758C1421.9 511.658 1433.9 526.058 1453.4 542.458C1473.3 559.158 1478.6 588.658 1487.4 611.658C1500.2 644.458 1515.4 676.358 1527.8 709.258Z" fill="#3089A2"/>
<path d="M1478.3 584.658C1479.3 587.558 1480.2 589.958 1481.2 592.058C1482.9 592.658 1484.6 593.258 1486.3 593.758C1497.5 597.258 1508.9 599.758 1520.6 600.858C1528.5 601.558 1536.4 601.858 1544.4 601.758C1545.3 601.658 1546.2 601.658 1547.2 601.658C1547.3 601.658 1547.4 601.658 1547.4 601.658C1565.4 601.158 1583.4 598.758 1601.2 595.458C1600.4 595.258 1599.6 595.158 1598.7 594.958C1569.6 589.258 1541.1 579.358 1514 567.958C1504.6 563.958 1495.3 559.558 1485.8 555.758C1476.6 552.058 1467.3 548.758 1458.2 545.058C1457.1 544.658 1456 544.158 1455 543.758C1466.6 554.358 1473 569.358 1478.3 584.658Z" fill="#351F5D"/>
<path d="M1699.6 780.758C1694.1 739.658 1686.6 698.258 1676.7 667.858C1665.6 633.658 1647.7 601.958 1633 569.258" stroke="#351F5D" stroke-width="4" stroke-miterlimit="10" stroke-linecap="round" stroke-linejoin="round"/>
<path d="M1566.7 361.058L1588.7 378.158C1592.6 384.258 1605.5 390.158 1614 394.358C1619.6 384.058 1627.2 364.858 1629.1 353.258C1614.8 358.458 1580.8 355.558 1566.7 361.058Z" fill="#351F5D"/>
<path d="M1527.5 306.958C1529.5 312.258 1533 317.158 1538.4 319.058C1542.2 320.358 1546 318.958 1549.7 321.158C1562.5 328.858 1559.9 341.258 1558.7 354.258C1557.8 364.458 1556.8 376.058 1555.6 386.258C1554.4 396.358 1554.9 393.658 1555.4 403.758C1555.1 398.158 1585.6 416.358 1586.7 417.458C1599.7 429.758 1611.7 444.658 1617.2 461.858C1621.3 440.358 1619.1 415.558 1614.3 394.358C1611.8 383.358 1611.1 372.058 1609 361.058C1607.8 354.458 1606.1 345.458 1606.5 338.958C1613.6 339.258 1621 335.158 1624.2 328.658C1625.8 325.358 1625.5 321.658 1626.4 318.158C1627.6 313.058 1629.9 308.158 1631.1 302.958C1633.4 293.258 1633.1 285.758 1623.4 280.458C1612.3 274.358 1612.7 259.858 1606.2 249.358C1597.5 235.558 1575.5 227.358 1560 230.358C1543.7 233.558 1535.6 248.958 1532.7 263.958C1531 272.858 1530.8 282.758 1532.1 291.858C1532 290.958 1527.2 296.658 1526.9 297.658C1525.7 300.658 1526.4 304.158 1527.5 306.958Z" fill="#E49D2C"/>
<path d="M1564.7 294.958C1559.7 300.558 1556.8 310.958 1560.1 318.058C1566.9 332.658 1588.6 337.158 1602.4 331.058" stroke="#351F5D" stroke-width="4" stroke-miterlimit="10" stroke-linecap="round" stroke-linejoin="round"/>
<path d="M1607.2 305.758C1611.1 310.858 1611 317.458 1607 320.458C1603 323.558 1596.6 321.958 1592.7 316.858C1588.8 311.758 1588.9 305.158 1592.9 302.158C1596.9 299.158 1603.3 300.758 1607.2 305.758Z" fill="#F9CA66"/>
<path d="M1603.3 308.858C1605.1 311.158 1605.1 314.258 1603.2 315.658C1601.4 317.058 1598.4 316.358 1596.6 313.958C1594.8 311.658 1594.8 308.558 1596.7 307.158C1598.6 305.758 1601.5 306.458 1603.3 308.858Z" stroke="#351F5D" stroke-width="4" stroke-miterlimit="10" stroke-linecap="round" stroke-linejoin="round"/>
<path d="M1728.6 183.358C1749 161.158 1769.9 143.758 1779.2 120.358C1784.5 124.558 1797.5 139.358 1801.7 144.658C1787.9 149.858 1762.5 166.058 1749.9 180.958C1764.6 181.558 1776.9 197.458 1777.2 211.258C1777.6 229.558 1765.8 238.858 1753.9 250.058C1738.1 264.958 1713.3 287.058 1692.7 300.558C1691.1 299.358 1689.6 297.058 1688.9 295.258C1708.2 275.358 1732.7 260.058 1751.1 239.358C1763.6 225.258 1772.5 204.158 1752.1 192.658C1745.4 188.858 1740.6 192.558 1735.1 196.958C1704.3 221.658 1675.9 250.458 1646.9 277.158C1639.1 284.358 1615.6 305.158 1602.9 315.058C1599.4 317.858 1594.9 310.958 1597.9 307.858C1600.3 305.258 1710.5 203.058 1728.6 183.358Z" fill="#F9CA66"/>
<path d="M1903.9 52.658C1936.1 100.158 1933.2 158.258 1897.5 182.458C1861.8 206.658 1806.7 187.858 1774.5 140.358C1742.3 92.858 1745.1 34.758 1780.9 10.558C1816.6 -13.642 1871.7 5.158 1903.9 52.658Z" fill="#F9CA66"/>
<path d="M1836.7 101.358C1849.6 120.458 1848.5 143.758 1834.1 153.458C1819.8 163.158 1797.6 155.658 1784.7 136.558C1771.8 117.458 1772.9 94.1579 1787.3 84.3579C1801.7 74.7579 1823.8 82.2579 1836.7 101.358Z" fill="#351F5D"/>
<path d="M1684.6 215.646L1672.12 225.003L1674.58 228.284L1687.06 218.927L1684.6 215.646Z" fill="#F9CA66"/>
<path d="M1687.2 229.858L1681.3 222.058L1678.8 223.858L1684.9 232.058C1685.7 231.358 1686.4 230.558 1687.2 229.858Z" fill="#F9CA66"/>
<path d="M1664.93 213.926L1652.45 223.284L1654.91 226.565L1667.39 217.206L1664.93 213.926Z" fill="#F9CA66"/>
<path d="M1661.75 220.411L1659.27 222.269L1673.83 241.719L1676.31 239.861L1661.75 220.411Z" fill="#F9CA66"/>
<path d="M1659.49 231.541L1647.62 241.665L1650.28 244.784L1662.15 234.66L1659.49 231.541Z" fill="#F9CA66"/>
<path d="M1656.77 238.21L1654.42 240.222L1670.19 258.71L1672.55 256.698L1656.77 238.21Z" fill="#F9CA66"/>
<path d="M1711.8 278.058C1706.3 271.558 1688 245.058 1683 237.958C1680.3 239.358 1678.3 241.358 1676.3 243.558C1675.4 244.558 1700.6 279.158 1704 281.158C1705.6 282.158 1707.7 280.658 1711.8 278.058Z" fill="#F9CA66"/>
<path d="M1721.9 268.558C1716.4 262.058 1698.1 235.558 1693.1 228.458C1690.4 229.858 1688.4 231.858 1686.4 234.058C1685.5 235.058 1710.7 269.658 1714.1 271.658C1715.6 272.758 1717.8 271.258 1721.9 268.558Z" fill="#F9CA66"/>
<path d="M1698.9 287.458C1693.4 280.958 1675.1 254.458 1670.1 247.358C1667.4 248.758 1665.4 250.758 1663.4 252.958C1662.5 253.958 1687.7 288.558 1691.1 290.558C1692.6 291.558 1694.8 290.158 1698.9 287.458Z" fill="#F9CA66"/>
<path d="M1669.9 270.058C1668.2 254.258 1653.5 244.658 1655.1 227.758C1655.7 222.058 1657.3 216.758 1655.3 211.158C1654.2 208.158 1646 195.558 1642.5 202.558C1641.5 204.558 1643 208.458 1643.2 210.558C1643.4 213.358 1643.2 215.958 1642.8 218.758C1642.1 224.358 1641.5 230.058 1641.5 235.758C1641.3 252.058 1650.4 260.958 1656.8 275.358C1661 273.658 1665.5 270.858 1669.9 270.058Z" fill="#E49D2C"/>
<path d="M1670 229.658C1667.7 235.458 1666.3 241.658 1664 247.458C1660.9 255.658 1658.3 265.458 1662.5 273.758C1666.6 271.858 1673.9 272.658 1678.6 272.158C1678.2 267.858 1677 263.958 1677.3 259.558C1677.7 254.458 1679 249.358 1679.6 244.258C1680.3 238.358 1680.6 232.458 1681.7 226.558C1682.4 222.658 1685.1 211.258 1677.3 213.158C1674.1 213.958 1673.8 217.158 1673.3 219.858C1672.6 223.458 1671.3 226.058 1670 229.658Z" fill="#E49D2C"/>
<path d="M1642.2 236.958C1643.9 229.658 1651.4 225.958 1657.3 221.858C1659.7 220.158 1667.3 215.458 1664.6 211.258C1662.8 208.458 1658.6 211.358 1656.1 212.358C1648.1 215.458 1642.6 220.258 1635.8 225.158C1634 226.458 1631.8 227.258 1630.4 228.958C1627.6 232.358 1627.2 237.658 1626.1 241.758C1624.8 246.558 1626.4 249.858 1628.2 254.458C1631.6 263.458 1635.4 273.958 1641.1 281.758C1643.5 279.958 1650.5 277.558 1651.3 275.158C1652.3 272.258 1648 266.258 1646.9 263.658C1643.7 256.258 1641.4 247.158 1642.1 239.058C1642 238.358 1642.1 237.658 1642.2 236.958Z" fill="#E49D2C"/>
<path d="M1642.2 208.158C1643.8 217.558 1641.4 228.858 1641.4 235.358C1641.3 241.158 1642.7 246.058 1644.1 251.558C1645.2 256.058 1647.3 259.758 1648.6 264.158" stroke="white" stroke-width="4" stroke-miterlimit="10" stroke-linecap="round" stroke-linejoin="round"/>
<path d="M1563.4 282.958C1572.4 287.458 1578.6 285.858 1583.7 276.058" stroke="#351F5D" stroke-width="4" stroke-miterlimit="10" stroke-linecap="round" stroke-linejoin="round"/>
<path d="M1596.4 271.758C1599.8 277.858 1608.9 272.858 1610.9 267.858" stroke="#351F5D" stroke-width="4" stroke-miterlimit="10" stroke-linecap="round" stroke-linejoin="round"/>
<path d="M1594.8 291.058C1592 291.158 1588.8 294.258 1591.6 296.958C1593.4 298.658 1595.9 297.158 1597.9 296.458C1601.4 295.158 1604.5 292.958 1607.8 291.458C1605.2 287.158 1601.3 283.958 1598.1 280.058C1595 276.358 1592.8 272.058 1589.7 268.358" stroke="#351F5D" stroke-width="4" stroke-miterlimit="10" stroke-linecap="round" stroke-linejoin="round"/>
<path d="M1548.5 301.758C1542.5 296.358 1534.3 294.258 1527.9 289.458C1521.1 284.358 1516.4 275.758 1511.4 268.858C1500.8 254.058 1518.4 238.958 1529 230.258C1543.6 218.258 1561.4 198.158 1581.4 196.658C1580.2 201.058 1576.2 203.858 1573.8 207.558C1577.4 209.058 1581.4 207.658 1585 205.658C1592.1 201.558 1598.5 196.758 1605.9 193.158C1612.5 199.458 1602.3 204.658 1597.9 208.458C1595.6 210.458 1582.8 220.458 1591.5 220.058C1605.4 219.458 1617.9 190.658 1632.4 194.858C1639.1 196.858 1631.1 202.758 1628.7 204.958C1620.4 212.558 1600.1 223.358 1601.2 236.158C1607.5 232.858 1613.7 223.658 1621.3 223.758C1622.1 231.958 1606.1 249.058 1597.8 249.958C1586.2 251.158 1564 234.458 1554.1 242.558C1549.7 246.158 1555.5 254.058 1555 260.158C1554.2 269.958 1544 274.658 1542.3 283.258C1541.3 289.058 1546.9 295.958 1548.5 301.758Z" fill="#351F5D"/>
<path d="M1673.1 257.058C1673.4 259.958 1635 260.458 1630.8 259.158C1627.6 278.058 1643.1 288.558 1649.2 304.258C1655.4 320.358 1652.9 337.258 1650.3 353.858C1644.2 392.658 1628.5 432.358 1615.4 469.358C1603.2 503.858 1569.7 605.658 1644.6 599.958C1712.6 594.758 1700 489.258 1699 445.658C1698 403.358 1697.3 359.458 1693.9 317.358C1693 306.758 1692.8 296.758 1687.8 287.358C1682.3 277.358 1674.4 268.758 1673.1 257.058Z" fill="#E49D2C"/>
<path d="M1681 569.958C1695.6 537.858 1630.9 505.058 1612.3 492.658C1575.5 468.358 1533.4 452.958 1515.3 507.258C1490.1 582.658 1649.9 638.558 1681 569.958Z" fill="#E49D2C"/>
<path d="M1527.7 391.258C1530.9 405.758 1546.7 421.258 1553.1 432.058C1556.5 437.758 1559.1 442.758 1564.2 447.158C1563.4 446.458 1577.7 421.058 1578.5 419.558C1591.6 433.258 1605.3 449.458 1616.1 463.058C1611.9 445.258 1604.3 426.958 1593.7 411.958C1591.9 409.358 1556.7 377.858 1555.7 385.758C1556.3 380.758 1557.5 364.558 1558 360.558C1557.3 365.358 1530.3 370.458 1527.5 382.258C1527 385.158 1527.1 388.158 1527.7 391.258Z" fill="#351F5D"/>
<path d="M1556.7 271.758C1568.3 270.258 1580.3 268.058 1591.8 265.558C1597.3 264.358 1603.4 262.358 1605.2 256.558C1590.9 261.958 1574.7 264.858 1559.7 267.258" fill="#E49D2C"/>
<path d="M1631.2 550.858C1617.5 541.758 1596.7 507.658 1608.4 490.158C1592.7 481.058 1576.2 473.258 1560.6 465.358C1542.6 456.158 1524.4 446.958 1505.7 439.358" stroke="#351F5D" stroke-width="4" stroke-miterlimit="10" stroke-linecap="round" stroke-linejoin="round"/>
<path d="M1694.4 250.358C1691 253.258 1685.8 265.458 1691.3 264.658C1696.3 263.958 1698.1 260.158 1701 257.058C1702.6 255.358 1708.1 252.558 1709.9 251.158C1711.8 249.758 1714.4 249.858 1716.2 248.758C1712.4 251.158 1709.3 254.358 1708.3 258.958C1707.5 262.358 1706.6 265.558 1706.4 269.058C1706.2 271.558 1706.5 276.158 1710.3 275.658C1712.7 275.358 1713.9 271.758 1716.3 270.958C1718.6 270.258 1719.7 272.258 1721.9 269.958C1724.8 266.858 1726.1 263.758 1729.8 261.558C1732.7 259.858 1736 258.258 1738.6 256.258C1742.9 252.958 1738.2 245.858 1734.1 244.958C1732.1 244.458 1729.2 244.458 1727.4 243.858C1727.4 243.858 1727.1 241.258 1724 239.758C1722.9 239.258 1718.6 238.558 1714.8 239.358C1711.2 235.858 1704.5 230.058 1700.2 231.158C1694.6 232.558 1688.5 240.558 1684.8 245.058C1681.9 248.558 1677.7 255.158 1685.7 254.358C1690.2 253.958 1692.9 249.558 1695.6 246.558C1697.5 244.458 1702.7 239.058 1705.5 242.558C1701.6 244.558 1697.6 247.558 1694.4 250.358Z" fill="#E49D2C"/>
<path d="M1724.8 239.358C1714.6 240.558 1703.9 239.358 1695.3 246.358C1691 249.858 1687.2 256.258 1680.9 254.358" stroke="white" stroke-width="4" stroke-miterlimit="10" stroke-linecap="round" stroke-linejoin="round"/>
<path d="M1730.6 243.158C1717.7 245.658 1706.2 251.458 1697.1 260.958C1693.5 264.658 1689 265.358 1685.6 260.858" stroke="white" stroke-width="4" stroke-miterlimit="10" stroke-linecap="round" stroke-linejoin="round"/>
<path d="M1430.1 718.758L1518.8 1093.96L1334.7 1094.66L1319.4 720.358L1430.1 718.758Z" fill="white"/>
<path d="M1443.7 683.758L1440.9 727.658L1323.3 725.858L1337 1099.96L1303.2 1084.56L1309 627.158L1322.4 628.758C1322.4 628.758 1318.1 661.658 1326.3 673.758C1334.6 685.858 1431.4 677.958 1438 679.358C1444.7 680.858 1443.7 683.758 1443.7 683.758Z" fill="#351F5D"/>
<path d="M1421 953.058L1414.2 943.158L1318.6 942.958L1319.7 956.658L1421 953.058Z" fill="#351F5D"/>
<path d="M1417.4 903.258L1408.5 891.858L1316 893.058L1317.2 905.158L1417.4 903.258Z" fill="#351F5D"/>
<path d="M1413.6 886.858L1404.5 877.458L1315.4 879.558L1316.4 891.058L1413.6 886.858Z" fill="#351F5D"/>
<path d="M1418.5 919.958L1417.1 913.558L1321.4 912.958L1320 923.858L1418.5 919.958Z" fill="#351F5D"/>
<path d="M1411.1 868.758L1403.1 859.358L1320.2 860.858L1321.3 871.958L1411.1 868.758Z" fill="#351F5D"/>
<path d="M1407.6 853.458L1399.6 844.258L1319.7 847.458L1320.6 857.058L1407.6 853.458Z" fill="#351F5D"/>
<path d="M1403.4 823.458L1395.4 814.258L1313.1 816.258L1314.5 825.058L1403.4 823.458Z" fill="#351F5D"/>
<path d="M1399.7 809.858L1391.6 801.558L1312.5 803.458L1313.4 813.558L1399.7 809.858Z" fill="#351F5D"/>
<path d="M1406.2 840.358L1395.8 830.658L1318.2 831.758L1316.8 843.158L1406.2 840.358Z" fill="#351F5D"/>
<path d="M1398.4 795.058L1391.7 785.358L1320.8 787.358L1321.6 797.758L1398.4 795.058Z" fill="#351F5D"/>
<path d="M1396 780.158L1389.1 772.258L1320.8 775.058L1321.5 784.858L1396 780.158Z" fill="#351F5D"/>
<path d="M1392.5 753.758L1385.7 745.058L1315.5 745.958L1316.5 755.158L1392.5 753.758Z" fill="#351F5D"/>
<path d="M1389.2 742.558L1382.3 735.458L1314.8 737.058L1315.6 745.758L1389.2 742.558Z" fill="#351F5D"/>
<path d="M1395.8 767.858L1386.2 758.558L1319.9 759.558L1318.5 770.858L1395.8 767.858Z" fill="#351F5D"/>
<path d="M1440.3 1069.76L1431.4 1055.26L1334 1059.66L1335 1075.26L1440.3 1069.76Z" fill="#351F5D"/>
<path d="M1435.8 1046.46L1426.5 1034.56L1332.9 1040.06L1333.5 1054.86L1435.8 1046.46Z" fill="#351F5D"/>
<path d="M1433.3 998.558L1424.2 985.558L1328 988.158L1329.1 1002.06L1433.3 998.558Z" fill="#351F5D"/>
<path d="M1429.3 978.058L1420 967.358L1327.4 971.058L1328.3 984.158L1429.3 978.058Z" fill="#351F5D"/>
<path d="M1437.5 1018.86L1424.5 1004.96L1333.6 1007.56L1331.5 1024.86L1437.5 1018.86Z" fill="#351F5D"/>
<path d="M1419.7 936.158L1413.9 926.758L1321.7 928.958L1324.3 937.158L1419.7 936.158Z" fill="#351F5D"/>
<path d="M1309 627.158L1301 1051.46" stroke="white" stroke-width="4" stroke-miterlimit="10" stroke-linecap="round" stroke-linejoin="round"/>
<path d="M1949.9 893.558C1924.6 909.658 1902.5 929.458 1882.9 955.458C1868.3 974.758 1861.2 997.858 1848.5 1017.86C1835.8 1037.86 1815.6 1053.36 1804 1074.86C1799.1 1083.86 1796.5 1108.76 1789.3 1115.16C1768.7 1133.46 1757.5 1121.56 1727.9 1108.66C1692.8 1093.36 1616.5 1084.96 1596.9 1056.46C1580.3 1032.36 1584.4 982.758 1583.6 954.658C1563 947.558 1541.2 948.158 1519.8 946.458C1524.5 946.858 1584.3 823.558 1595 810.258C1617.9 781.858 1647.4 762.058 1674.6 738.158C1734.7 685.458 1797.5 599.558 1888.5 628.958C1951 649.158 2062.8 744.558 2055.1 820.458C2051.9 852.058 2029.2 854.958 2002.9 866.158C1983.9 874.158 1966.2 883.058 1949.9 893.558Z" fill="#351F5D"/>
<path d="M1491.3 768.258L1664.9 690.158L1826.7 560.758L1944 622.358L1675.3 786.458L1506.2 829.058L1491.3 768.258Z" fill="#351F5D"/>
<path d="M1949 724.758C1949 724.758 1888.9 726.858 1854.1 743.758C1819.2 760.658 1702.4 820.958 1702.4 820.958L1826.5 709.958C1826.5 709.958 1890.1 639.958 1904.4 635.558C1918.7 631.158 1960.7 642.458 1960.7 642.458L2000.6 731.258L1949 724.758Z" fill="white"/>
<path d="M1902.2 713.058C1920 715.758 1964.9 712.458 2002.5 714.758C2022.7 715.958 1979.9 651.658 1960.4 647.358C1943.2 643.558 1931.9 643.558 1918.2 653.858C1904.5 664.158 1889.1 672.958 1885 691.058C1881.5 706.958 1886.9 710.758 1902.2 713.058Z" fill="#351F5D"/>
<path d="M2123.7 562.158C2158.6 568.658 2195.1 603.758 2192.7 641.158C2191.3 663.458 2177 678.858 2158.2 689.058C2148.8 694.158 2138.8 697.958 2128.9 701.758C2122.4 704.258 2105.1 707.658 2100.4 712.058C2097.8 714.458 2100.7 715.958 2099.4 718.458C2094.8 727.058 2096 726.058 2086.5 724.958C2080.3 724.258 2073.9 722.958 2067.7 721.758C2060 720.258 2039 716.958 2046.6 704.458C2032.4 705.058 1888.4 707.958 1889 697.458C1890.1 675.558 1914.2 661.658 1930.2 651.458C1920.7 638.358 1917.2 627.758 1934.5 619.458C1951.8 611.258 1971 608.358 1988.6 601.158C2005.4 594.358 2021.2 584.158 2037.3 575.958C2064.6 561.958 2093.5 556.558 2123.7 562.158Z" fill="#E49D2C"/>
<path d="M1973.3 610.758C1981 606.858 1990.3 602.058 1999.2 600.258C2001 599.858 2005 609.458 2005.5 610.858C2007.2 615.658 2007.8 620.858 2007.9 625.958C2008.1 632.658 2008.8 658.158 1999.7 659.558C1988.7 661.258 1974.3 655.258 1969.3 645.058C1966.2 638.658 1964.2 621.258 1969.4 615.258L1973.3 610.758Z" fill="#351F5D"/>
<path d="M1999.7 659.558C2001 659.758 2008 658.058 2013.9 644.958C2016.4 639.458 2016.7 633.358 2016 627.358C2015.3 620.858 2008.3 596.458 1997.9 600.958C2005.5 616.458 2002.4 637.258 1999.7 659.558Z" fill="white"/>
<path d="M1975.3 615.458C1962.2 623.258 1975.6 647.358 1982.1 656.658C1966.5 655.058 1961.8 638.658 1962.8 625.158C1963.1 620.558 1969 603.558 1974.5 616.058" fill="white"/>
<path d="M1996.7 614.858C1997.1 630.258 2001.3 646.358 1996.4 660.158C1971.8 657.158 1972.1 650.058 1970.1 636.158C1967.8 620.058 1980.2 618.158 1993.3 616.858" fill="#E05E5E"/>
<path d="M2070.4 603.258C2063.8 595.858 2060.8 586.058 2061.7 576.858" stroke="#351F5D" stroke-width="4" stroke-miterlimit="10" stroke-linecap="round" stroke-linejoin="round"/>
<path d="M2075.2 635.558C2075.7 650.458 2076.9 666.258 2084.5 676.358" stroke="#351F5D" stroke-width="4" stroke-miterlimit="10" stroke-linecap="round" stroke-linejoin="round"/>
<path d="M2174.2 667.958C2175.4 631.958 2133.6 617.958 2136.2 578.258C2138.2 548.258 2163.7 511.558 2197 513.058C2189.1 523.958 2176.8 537.458 2171.5 549.858C2181.9 546.158 2201.7 545.158 2211.7 551.258C2223 558.158 2215.6 568.558 2209.8 577.558C2202.2 589.358 2206.7 593.658 2210.3 606.158C2214.5 620.658 2210.6 632.858 2205.6 646.558C2200.3 661.158 2193.7 676.758 2184.5 689.358C2171.2 707.558 2150.8 722.058 2127.7 722.358C2121.3 722.458 2059 709.058 2059 705.158C2059 701.558 2058.6 697.658 2058 694.158C2058.2 695.258 2101.3 695.158 2105.2 694.158C2104.1 689.758 2102.5 684.758 2101.5 680.558C2118.3 682.558 2159.1 695.458 2171.6 676.858C2173.3 674.258 2174 671.258 2174.2 667.958Z" fill="#E05E5E"/>
<path d="M1431.2 900.058C1432.2 899.358 1433.2 898.758 1434.3 898.358C1442.7 894.558 1452.3 894.158 1461.3 892.758C1448.7 894.658 1440.4 906.758 1434.6 916.558C1433 919.358 1421.2 939.658 1423.9 942.358C1432 950.558 1449.2 924.058 1454 919.658C1457.6 916.358 1461.7 913.358 1465.9 914.158C1470.5 914.958 1475.4 920.058 1480.3 921.358C1491.5 924.358 1512.8 927.358 1522.3 918.958C1531 911.258 1530.7 878.358 1535 866.358C1510.7 855.458 1479.9 833.558 1452.3 844.258C1441.2 848.558 1429.7 858.458 1423.1 868.158C1419.9 872.758 1417.5 878.058 1419.5 883.558C1421.4 888.758 1423.6 888.958 1419.1 893.658C1414.8 898.158 1405.4 901.858 1404.4 908.758C1403.6 914.958 1408.8 915.058 1413.7 913.558C1421.5 911.258 1425.2 904.258 1431.2 900.058Z" fill="#E49D2C"/>
<path d="M1416.3 894.058C1422.5 888.858 1428.2 880.858 1432 873.758C1436.3 865.558 1441.4 862.558 1450.1 859.258" stroke="white" stroke-width="4" stroke-miterlimit="10" stroke-linecap="round" stroke-linejoin="round"/>
<path d="M1454.5 874.358C1438.7 874.058 1430.4 883.958 1417.7 891.858" stroke="white" stroke-width="4" stroke-miterlimit="10" stroke-linecap="round" stroke-linejoin="round"/>
<path d="M1543.1 847.158L1527 946.658L1551.7 949.658L1563.4 854.258L1543.1 847.158Z" fill="white"/>
<path d="M1427.4 780.058C1423 779.758 1418.4 778.658 1414.1 778.458C1410.2 778.258 1406.5 779.358 1402.6 779.058C1398.1 778.758 1393.7 778.358 1389.2 778.858C1384.1 779.358 1377.8 779.458 1372.8 780.758C1371 781.258 1362.4 782.258 1363.1 785.758C1363.7 789.158 1371.8 787.558 1373.5 787.358C1382.2 785.858 1390.4 785.758 1399.2 786.058" fill="#E49D2C"/>
<path d="M1433.3 782.258C1423.2 783.558 1417.2 783.558 1408.4 778.658C1405.4 777.058 1388.8 765.058 1386.5 770.258C1384.3 775.158 1407.7 786.758 1412.6 789.758" fill="#E49D2C"/>
<path d="M1399.6 834.058C1400.3 825.458 1411.1 823.258 1415.3 817.358C1419.7 811.258 1411.9 807.858 1407.8 805.258C1401.9 801.458 1398.6 800.158 1391.3 800.958C1387.9 801.358 1383.5 800.058 1380.4 801.758C1376.8 803.658 1376.3 808.258 1374.7 811.558C1373.2 814.558 1370.8 818.758 1366.8 818.558C1353 817.858 1370.2 798.258 1372.8 794.758C1369.6 798.158 1365.7 800.558 1361 801.158C1357.9 801.558 1353.8 801.358 1353.7 797.158C1353.7 794.958 1359.6 792.758 1362.5 791.558C1366.8 789.858 1370.2 786.858 1374.3 784.758C1383 780.558 1392.5 785.558 1401.6 784.858C1403.3 784.758 1404.9 783.858 1406.6 783.758C1408.1 783.658 1409.7 784.558 1411 784.358C1413.2 784.058 1413.7 781.758 1415.9 780.858C1420.7 778.758 1428.1 780.458 1433.2 780.358C1440.7 780.158 1448.3 780.058 1455.8 780.058C1461.8 780.158 1468.4 779.258 1474.3 779.858C1475.7 780.058 1476 779.458 1477.2 780.358C1478.6 781.358 1479 784.058 1479.7 785.558C1481 788.658 1482.7 791.658 1484.4 794.558C1487.6 799.758 1491 804.858 1494.6 809.758C1493.3 808.058 1476.3 816.358 1474 817.358C1467.7 819.958 1463.5 825.658 1457 828.058C1449 831.058 1440.7 825.858 1433.1 828.158C1427.2 829.958 1425.4 834.258 1420.5 837.458C1414.5 841.458 1398.1 853.158 1399.6 834.058Z" fill="#E49D2C"/>
<path d="M1492.7 771.658L1505.3 825.558L1501.1 826.858L1474.3 777.558L1492.7 771.658Z" fill="white"/>
<path d="M2009.7 597.858C1984.5 604.358 1957 609.858 1933.1 620.158C1908.9 630.658 1926.2 655.058 1944.2 660.658C1969.1 668.358 1997.2 665.058 2019.6 652.358" stroke="#351F5D" stroke-width="4" stroke-miterlimit="10" stroke-linecap="round" stroke-linejoin="round"/>
<path d="M2042.6 602.958C2040.2 602.658 2029.1 600.358 2027 601.858C2022.5 605.058 2022.7 619.558 2025.2 623.458C2029.7 630.558 2038.7 628.258 2046.1 628.558C2058.4 628.958 2086 632.958 2090 616.558C2078.9 608.458 2056.4 604.858 2042.6 602.958Z" fill="#E05E5E"/>
<path d="M2006.2 712.258C2019.6 739.858 2005.2 755.958 1995.1 761.458C1979.5 769.958 1961.9 774.558 1946.5 783.258C1950.1 770.858 1961.7 743.058 1944.7 734.658C1933.4 748.358 1912.4 761.758 1897.6 771.758C1894.2 764.558 1890.5 757.258 1885 751.458C1858.7 762.158 1831.2 771.658 1804.5 782.358C1786.7 789.558 1768.7 796.358 1750.8 803.158C1733.2 809.858 1710.6 813.558 1695.9 825.658" stroke="#3B5391" stroke-width="4" stroke-miterlimit="10" stroke-linecap="round" stroke-linejoin="round"/>
<path d="M1934.3 617.358C1918.5 610.358 1902.6 599.158 1885.5 596.158C1885.1 603.258 1896.4 623.358 1891.9 628.558C1883.8 637.958 1849.3 616.158 1843.9 627.858C1841 634.158 1852 645.558 1850.2 652.358C1847.2 663.558 1825.7 676.658 1818.3 686.658C1805.1 704.258 1791.7 721.858 1777.8 738.958C1751 772.158 1724.7 800.058 1692.6 828.458" stroke="#3B5391" stroke-width="4" stroke-miterlimit="10" stroke-linecap="round" stroke-linejoin="round"/>
<path d="M1853.1 811.158C1845.4 833.158 1846.3 862.558 1872.4 871.058" stroke="#3B5391" stroke-width="4" stroke-miterlimit="10" stroke-linecap="round" stroke-linejoin="round"/>
<path d="M1563.8 858.758L1731.6 879.258L1928.5 817.358C1928.5 817.358 2047.6 831.858 2052.7 832.458C2041.5 831.058 1986.2 892.658 1975.5 901.158C1937.4 931.458 1898.4 960.758 1858.8 989.158C1810.1 1024.06 1759 1014.16 1704.6 999.658C1691 996.058 1551.2 961.358 1551.3 960.658C1551.4 960.658 1563.8 858.758 1563.8 858.758Z" fill="#351F5D"/>
<path d="M1609.5 796.058C1625.3 781.358 1638 768.058 1656.7 757.058C1693.4 735.558 1724.6 709.058 1760.1 685.758C1771.7 678.158 1788 670.858 1796.8 660.158" stroke="#3B5391" stroke-width="4" stroke-miterlimit="10" stroke-linecap="round" stroke-linejoin="round"/>
<path d="M1794.4 874.758C1833.2 858.658 1871 837.558 1908.8 818.858" stroke="#3B5391" stroke-width="4" stroke-miterlimit="10" stroke-linecap="round" stroke-linejoin="round"/>
<path d="M1573.4 858.158C1630.3 866.158 1712 877.358 1746.7 881.758" stroke="#3B5391" stroke-width="4" stroke-miterlimit="10" stroke-linecap="round" stroke-linejoin="round"/>
<path d="M2072.6 569.958C2071.6 567.658 2070.2 566.658 2072.6 564.858C2079.7 570.258 2084.1 578.158 2086.9 586.358C2088.1 589.858 2091.2 606.258 2082.4 601.658C2083 601.958 2078.4 586.058 2078.1 584.958C2076.6 579.558 2074.9 575.458 2072.7 570.258C2072.6 570.058 2072.6 569.958 2072.6 569.958Z" fill="#351F5D"/>
<path d="M2087.6 628.658C2088 628.058 2088.7 627.458 2089.7 627.058C2093.6 625.558 2099.3 634.558 2101.2 637.158C2105.7 643.558 2108.6 653.058 2106.6 660.858C2105.1 666.658 2102.4 667.858 2100.1 661.758C2098.3 656.758 2100.4 651.658 2097.9 646.658C2096.5 643.858 2084.6 633.358 2087.6 628.658Z" fill="#351F5D"/>
<path d="M624.9 526.558C626.4 524.858 632.5 518.758 635.3 520.058C641.2 522.858 633.1 527.358 631.1 528.358C621.8 532.658 613.5 529.958 614.6 518.658C619.4 518.758 619.9 523.658 622.1 526.958C623.4 526.358 625.4 526.458 626.6 525.758" fill="#351F5D"/>
<path d="M730 574.759C666.9 571.159 603.8 565.759 541.2 557.859C526.2 555.959 511.1 554.959 496.1 553.259C485.9 552.159 474.1 552.959 464.3 549.959C487.3 548.259 510.2 547.759 533.2 547.759C548.9 547.759 564.7 547.759 580.4 547.759C593.9 547.759 605.6 539.259 619.5 540.259C632.1 541.159 640.4 546.559 651.3 551.059C655.7 552.859 661.5 552.559 666.3 553.159C678.2 554.759 690 556.859 701.9 558.759C724.9 562.559 747.3 567.259 769.4 575.059C757.8 578.759 741.8 575.459 730 574.759Z" fill="#E49D2C"/>
<path d="M627.9 641.958H618.7V996.758H627.9V641.958Z" fill="#E49D2C"/>
<path d="M625.9 524.558H621.3V639.858H625.9V524.558Z" fill="#E49D2C"/>
<path d="M631.1 638.558H613.7V651.458H631.1V638.558Z" fill="#351F5D"/>
<path d="M613.7 581.358C613.7 586.958 618.2 591.558 623.6 591.558C629.1 591.558 633.5 586.958 633.5 581.358C633.5 575.758 629 571.158 623.6 571.158C618.1 571.158 613.7 575.758 613.7 581.358Z" fill="#351F5D"/>
<path d="M1023.8 780.558C1060.4 782.858 1097.4 785.258 1133.7 790.458C1160.4 794.258 1187.1 798.358 1213.7 803.258C1190.4 785.558 1161.6 760.458 1140 750.458C1108.8 735.958 1079.8 722.058 1044.5 724.558C1025.4 725.858 997.5 720.758 980.8 731.358C967.5 739.858 958.6 759.558 951.1 777.258C975.3 777.958 999.6 778.958 1023.8 780.558Z" fill="#351F5D"/>
<path d="M1222.8 819.458C1178.5 810.358 1133.6 803.858 1088.8 799.458C1051.8 795.858 1014.7 793.158 977.501 791.558C964.601 790.958 951.7 790.658 938.9 790.458C937 795.058 935.1 799.358 933.2 803.058C880 908.058 900.2 993.258 915.1 1110.96C919.6 1146.36 893.9 1217.46 930.1 1228.86C958.7 1237.86 972.3 1222.26 997.1 1239.06C1012.1 1152.76 1034.5 1070.86 1042.6 983.658C1045 957.258 1040.1 922.858 1073.5 921.758C1099.7 920.958 1240.1 975.358 1250.8 1001.36C1268.1 1043.56 1237.7 1238.66 1253.5 1273.16C1263.6 1295.06 1283 1295.56 1309.9 1301.16C1320 1274.76 1376.5 984.358 1349 936.858C1313.9 876.558 1271.7 849.958 1222.8 819.458Z" fill="#F9CA66"/>
<path d="M1093.9 868.458C1098 870.058 1102 872.058 1107 874.058C1119 879.058 1132 884.058 1144 890.058C1169.5 904.458 1193.8 918.958 1219.8 932.358C1273.9 960.158 1268.2 1010.56 1268.1 1064.76C1267.9 1137.66 1269.2 1210.66 1272.8 1283.46" stroke="#351F5D" stroke-width="4" stroke-miterlimit="10" stroke-linecap="round" stroke-linejoin="round"/>
<path d="M801.6 1162.36C835.5 1310.26 783.8 1448.36 686 1470.76C588.2 1493.16 481.4 1391.46 447.5 1243.56C413.6 1095.66 472.8 953.258 574.1 925.758C670.9 899.658 767.6 1014.56 801.6 1162.36Z" fill="#351F5D"/>
<path d="M725.823 1457.45C823.634 1435.02 875.426 1296.95 841.503 1149.08C807.58 1001.2 700.788 899.516 602.977 921.954C505.166 944.393 453.374 1082.46 487.297 1230.33C521.22 1378.21 628.011 1479.89 725.823 1457.45Z" fill="white"/>
<path d="M1067.4 1096.56C1033.5 948.658 926.7 846.958 828.9 869.358C800.1 875.958 596.8 917.558 567.2 926.958C555.8 930.558 544.6 937.458 544.4 937.758C549.2 935.958 562.7 932.658 567.7 931.558C665.5 909.158 767.7 1014.46 801.6 1162.36C835.5 1310.26 783.8 1448.36 686 1470.76C835.3 1443.66 854 1427.36 951.8 1404.86C1049.5 1382.56 1101.3 1244.46 1067.4 1096.56Z" fill="#351F5D"/>
<path d="M798.9 945.658L727.7 960.158L704 945.358L775.2 930.758L798.9 945.658Z" fill="#3B5391"/>
<path d="M894.7 1076.26L823.5 1090.86L814.7 1066.56L885.9 1051.96L894.7 1076.26Z" fill="#3B5391"/>
<path d="M920.7 1251.36L849.5 1265.86L849.6 1234.26L920.8 1219.76L920.7 1251.36Z" fill="#3B5391"/>
<path d="M1317.7 1313.26C1320.8 1315.26 1323.8 1317.26 1327.4 1318.96C1332.6 1321.56 1342.2 1321.96 1347.9 1322.46C1353.3 1322.96 1362.9 1324.06 1362.9 1328.66C1349.7 1328.66 1332.1 1328.66 1320.9 1328.66C1310.4 1328.66 1307.6 1326.96 1297.5 1324.26C1298.8 1327.56 1298 1327.56 1295.2 1327.86C1291.9 1328.16 1283.2 1329.46 1280.6 1326.96C1278.2 1324.66 1279.6 1316.06 1279.1 1312.76C1279.2 1313.26 1304.1 1313.66 1306.7 1312.76C1310.8 1311.26 1310 1308.36 1313.6 1310.56C1315 1311.56 1316.3 1312.36 1317.7 1313.26Z" fill="#3B5391"/>
<path d="M969.6 775.158C996.4 768.658 1023.9 763.958 1050.7 759.558C1067.5 756.758 1069 758.158 1077.4 744.458C1081.4 737.958 1088.3 721.358 1096.9 724.158C1095.8 727.258 1076 763.058 1076.4 763.358C1108.7 782.258 1145.9 790.158 1179 807.158C1197.1 816.358 1215.9 824.058 1234.9 830.958C1244.5 834.458 1254.1 837.658 1263.8 840.858C1267.9 842.158 1290.5 846.458 1291.9 849.858C1284.3 831.958 1287.5 811.758 1280 793.458C1267.1 761.658 1254.9 742.558 1261.8 706.058C1270.3 660.758 1285.4 616.458 1295 571.258C1302.7 534.958 1305.6 501.558 1273.9 477.558C1249.4 459.058 1218.2 445.658 1188.6 437.758C1162.1 430.658 1138.5 427.458 1111.7 428.958C1092.2 430.058 1063.5 424.758 1046.8 437.558C1016.1 461.058 1013.4 499.258 1007.7 534.258C1003.8 558.458 1007.9 583.158 1010.4 607.258C1012.9 630.958 1007.3 644.958 996.5 665.958C976.8 704.158 959.7 752.858 931.8 785.658C944.5 782.158 956.9 778.258 969.6 775.158Z" fill="#E05E5E"/>
<path d="M1123.6 652.958C1140.2 625.558 1146.3 597.058 1155.6 566.558C1162.1 545.458 1167.8 524.658 1176.5 504.358C1187.6 478.358 1205 440.358 1163.2 431.558C1154.2 429.658 1144.8 430.158 1135.9 432.358C1117.8 436.858 1101.7 440.058 1105.9 462.658C1107.7 472.358 1113 480.858 1115.2 490.558C1117.9 502.758 1117.6 515.458 1119.3 527.758C1125 567.958 1134.4 612.558 1123.6 652.958Z" fill="#351F5D"/>
<path d="M1374.7 672.258C1378.9 654.858 1386.2 632.758 1374.1 617.158C1361.6 601.158 1337.6 614.858 1331.8 609.658C1318.3 597.658 1314.2 570.358 1310.7 553.758C1306.7 534.858 1307.3 511.558 1298.4 494.058C1288.8 475.158 1263.8 466.058 1243.5 460.858C1212.5 452.958 1220.6 482.458 1218.8 501.558C1215.8 532.158 1212.4 553.158 1222.3 584.258C1236.9 630.058 1249.5 711.658 1303.7 729.658C1341.1 742.158 1367.5 702.358 1374.7 672.258Z" fill="#E05E5E"/>
<path d="M1322.2 646.258C1302.5 611.058 1349.4 596.558 1368.4 624.058C1381.6 643.158 1376.5 672.058 1348.5 668.558C1334.7 666.658 1328.4 657.158 1322.2 646.258Z" fill="#351F5D"/>
<path d="M1226.7 405.658C1226.7 405.658 1233.8 400.958 1226.7 397.158C1219.6 393.358 1211.1 391.558 1210.2 397.158C1209.3 402.758 1216.7 409.358 1220 411.258C1223.3 413.158 1433.1 578.758 1433.1 578.758L1443.7 568.358L1226.7 405.658Z" fill="white"/>
<path d="M1333.5 636.359C1349 644.559 1364.1 646.259 1367.4 626.859C1370.1 610.559 1369.4 594.059 1376.5 578.759C1383.7 563.059 1391.8 553.659 1392.1 535.559C1392.2 528.559 1391.8 523.659 1395.7 517.659C1398.9 512.759 1407.8 508.959 1409.2 503.059C1412.7 488.559 1392.8 498.459 1385.2 496.659C1375.2 477.359 1369.7 478.459 1363.7 476.059C1357.7 468.159 1351.3 456.259 1346.4 472.859C1342.9 484.559 1350.9 496.659 1350.8 508.559C1339.1 499.259 1330.9 504.959 1329.5 518.759C1329.8 515.659 1320.8 521.859 1320.3 522.459C1316.9 526.359 1316.9 534.359 1316.4 539.059C1315.3 551.259 1312.6 566.659 1315 578.659C1319.3 600.759 1310.4 624.059 1333.5 636.359Z" fill="#E49D2C"/>
<path d="M1337 550.658C1335.8 542.058 1334.7 522.058 1328.2 516.758" stroke="#351F5D" stroke-width="4" stroke-miterlimit="10" stroke-linecap="round" stroke-linejoin="round"/>
<path d="M1359 544.359C1352.8 530.059 1356.1 509.759 1349 496.059" stroke="#351F5D" stroke-width="4" stroke-miterlimit="10" stroke-linecap="round" stroke-linejoin="round"/>
<path d="M1379.7 538.058C1376.1 525.858 1375.5 513.158 1372.2 501.358C1370.4 494.758 1367.3 488.558 1364.3 482.358C1361.6 476.658 1360.2 470.258 1356.8 464.858C1358.6 467.858 1362.7 473.458 1359.1 476.658C1354.1 481.058 1348.2 472.358 1347.1 468.358" stroke="#351F5D" stroke-width="4" stroke-miterlimit="10" stroke-linecap="round" stroke-linejoin="round"/>
<path d="M1392.9 519.258C1392.1 512.458 1388.4 504.658 1386.6 499.158" stroke="#351F5D" stroke-width="4" stroke-miterlimit="10" stroke-linecap="round" stroke-linejoin="round"/>
<path d="M814.7 837.358C814.7 837.358 825.2 911.358 829.9 947.658C834.6 983.858 919.8 988.758 1006.1 979.358C1092.4 969.858 1123.6 939.358 1121.6 905.458C1119.6 871.658 1117.9 813.758 1117.9 813.758L814.7 837.358Z" fill="#3B5391"/>
<path d="M974.6 906.958H969.5L964.3 877.658H969.4L974.6 906.958Z" fill="#3B5391"/>
<path d="M849.5 905.958H844.4L839.2 865.058H844.3L849.5 905.958Z" fill="#3B5391"/>
<path d="M1090.5 883.558H1085.3L1082.4 849.658H1087.6L1090.5 883.558Z" fill="#3B5391"/>
<path d="M990.1 943.258L968.4 944.458L961.4 900.858L983.6 898.358L990.1 943.258Z" fill="#351F5D"/>
<path d="M1096.1 916.558L1080.4 923.058L1078.7 882.858L1094.5 876.358L1096.1 916.558Z" fill="#351F5D"/>
<path d="M812.2 844.258C814.1 869.258 886 884.258 972.8 877.658C1059.6 871.058 1128.5 845.458 1126.6 820.458C1124.7 795.458 1052.8 780.458 966 787.058C879.2 793.658 810.3 819.258 812.2 844.258Z" fill="#351F5D"/>
<path d="M823.9 841.758C825.6 863.858 891.5 876.958 971.1 870.958C1050.7 864.958 1113.9 842.158 1112.3 819.958C1110.6 797.858 1044.7 784.758 965.1 790.758C885.4 796.858 822.2 819.658 823.9 841.758Z" fill="white"/>
<path d="M860.7 939.558L842.8 933.958L836.3 889.158L854.2 894.758L860.7 939.558Z" fill="#351F5D"/>
<path d="M578.9 691.258C578.8 691.258 578.3 692.958 577.6 695.758C571.9 718.858 550.2 823.558 544.6 859.558C539 895.658 624.1 926.258 709.7 941.258C795.3 956.158 838.5 953.958 846 920.958C852.4 892.458 856.9 801.758 861.7 763.658C862.4 758.158 863.1 753.758 863.8 750.858C850.5 708.558 690.8 658.758 578.9 691.258Z" fill="#E49D2C"/>
<path d="M554.9 858.658C549.7 880.558 607.2 913.158 683.4 931.358C759.6 949.558 825.6 946.558 830.9 924.658C836.2 902.758 778.6 870.158 702.4 851.958C626.1 833.758 560.1 836.758 554.9 858.658Z" fill="#351F5D"/>
<path d="M851 808.558L844.4 800.458L849.6 755.458L857.2 763.658L851 808.558Z" fill="#351F5D"/>
<path d="M579.5 754.558L589.5 754.258L596.9 709.258L586.8 711.558L579.5 754.558Z" fill="#351F5D"/>
<path d="M661.6 754.858L647.1 754.158L654.9 706.158L669.5 706.958L661.6 754.858Z" fill="#351F5D"/>
<path d="M766.2 771.858L752.5 769.158L760.3 722.658L774 725.358L766.2 771.858Z" fill="#351F5D"/>
<path d="M577.8 680.758C577.4 680.858 576.4 686.058 574.7 692.858C575.6 694.058 576.5 694.958 577.5 695.858C578.2 692.958 578.7 691.358 578.8 691.358C690.7 658.858 850.4 708.558 863.7 750.958C863 753.958 862.3 758.258 861.6 763.758C863.2 761.958 864.6 760.358 864.7 760.358C866.8 747.558 866 750.558 867.4 744.758C853.5 696.258 685.8 642.658 577.8 680.758Z" fill="#351F5D"/>
<path d="M998.7 445.158C950.3 477.658 908 536.358 875.4 583.358C843.5 629.258 835.4 659.658 885 697.558C895 705.158 900.1 712.158 911.8 704.258C922.8 696.858 931.4 688.158 941.6 679.958C951.2 672.258 963.9 665.258 970.1 654.558C977.7 641.658 978.3 626.058 979.1 611.558C979.6 603.558 985 586.458 980 579.258C969.8 564.758 932.6 581.758 919.6 585.658C954.3 578.058 977.4 584.358 1001.4 559.658C1027.6 532.758 1087 503.358 1099 466.758C1101.6 458.758 1104.8 444.158 1098.3 436.958C1093.1 431.258 1076.7 429.258 1069.1 429.358C1047.3 430.058 1017.2 432.758 998.7 445.158Z" fill="#E05E5E"/>
<path d="M1174.1 436.058C1187.7 442.958 1197.2 450.058 1207.4 460.858C1209.5 463.158 1224.2 480.558 1227.6 479.258C1214.5 484.958 1199.7 486.558 1186.5 492.258C1189.9 498.458 1196.6 503.658 1200.4 510.458C1178 526.958 1167.6 573.158 1157.6 597.458C1141 637.458 1114.8 671.458 1098.5 711.758" stroke="#351F5D" stroke-width="4" stroke-miterlimit="10" stroke-linecap="round" stroke-linejoin="round"/>
<path d="M1098.3 447.758C1094 464.558 1079.5 481.358 1077 498.858C1089.7 498.958 1102.4 498.558 1115 498.758C1109.5 507.458 1102.3 515.058 1096.1 523.458C1118.4 526.258 1119.6 574.958 1120.7 590.058C1123.4 625.458 1119.3 654.758 1109.1 688.658" stroke="#351F5D" stroke-width="4" stroke-miterlimit="10" stroke-linecap="round" stroke-linejoin="round"/>
<path d="M920 599.958C954.7 556.358 996.8 614.358 971.5 653.458C954 680.558 914.7 686.958 905 646.558C900.3 626.758 909.2 613.458 920 599.958Z" fill="#351F5D"/>
<path d="M964.9 607.258C969.2 617.758 979.3 656.558 999.4 654.658C1007.3 653.858 1000.9 642.658 999.2 639.058C997.7 635.858 995.7 632.458 995 628.858C994 623.958 994.9 619.058 993.6 614.058C1004 615.258 1006.8 626.858 1012.3 634.358C1022.9 629.058 1023 612.458 1015.8 604.658C1011.2 599.758 1001.4 597.258 995.8 592.858C990.4 588.658 985.6 580.958 978.8 579.058C953.5 572.058 905.6 595.658 920.3 624.458C931.8 646.858 936 666.558 960 659.858C952 652.758 945.7 643.158 937 636.558C948.7 641.858 963.8 674.258 979.3 670.558C997.1 666.258 955.2 639.158 950.1 632.258C962.4 640.458 971.8 658.358 985.5 665.358C994.3 669.858 1001.3 666.458 1011.3 663.858C1009.8 657.658 1006.9 647.758 1000.2 653.558" fill="#E49D2C"/>
<path d="M938.3 637.458C947.6 649.358 961.1 658.758 970.9 670.558" stroke="#351F5D" stroke-width="4" stroke-miterlimit="10" stroke-linecap="round" stroke-linejoin="round"/>
<path d="M950.2 631.658C955.6 638.558 962.2 643.658 968.6 649.558C971.5 652.158 974.1 654.958 976.9 657.658C978.9 659.558 980.6 661.358 982.8 662.758C985.3 664.358 988.2 665.158 990.6 666.758" stroke="#351F5D" stroke-width="4" stroke-miterlimit="10" stroke-linecap="round" stroke-linejoin="round"/>
<path d="M963.9 608.258C963.9 610.358 964.2 612.558 964.7 614.558C965.4 617.158 966.9 617.858 968.6 619.658C970.9 622.058 972 627.058 973.4 630.058C976.8 637.558 980.7 648.358 989.1 651.958C992.8 653.558 995.4 654.858 999.4 654.758" stroke="#351F5D" stroke-width="4" stroke-miterlimit="10" stroke-linecap="round" stroke-linejoin="round"/>
<path d="M1062.5 560.858C1058.5 565.658 1054.4 570.258 1050.2 574.858C1040.2 585.758 1030 596.558 1020.1 607.558C1015.4 612.758 1010.7 618.058 1006.1 623.458C1002.7 627.458 999.3 634.258 994.9 637.058C993.3 634.958 993.2 630.958 993.1 628.258C993 626.958 992.8 625.158 993.2 623.858C994.6 619.958 999.2 615.958 1001.8 612.858C1005.3 608.658 1008.7 604.558 1012.2 600.358C1019.1 592.258 1026.2 584.258 1034.1 576.958C1044.6 567.158 1058.1 547.258 1070.4 540.558C1081.3 534.558 1083.8 540.158 1077.6 549.758C1069.9 561.558 1071.7 549.658 1062.5 560.858Z" fill="white"/>
<path d="M990.4 576.858C955.7 575.058 911 581.958 884.7 606.958" stroke="#351F5D" stroke-width="4" stroke-miterlimit="10" stroke-linecap="round" stroke-linejoin="round"/>
<path d="M1069.3 399.558C1076.9 410.858 1083.3 422.358 1089.6 434.158C1088.3 434.558 1086.7 435.258 1085.3 435.458C1086.7 440.358 1092.9 451.258 1097.5 454.058C1100.1 455.558 1101.3 454.358 1103.5 455.158C1111.3 458.158 1116.2 467.158 1122.4 472.558C1129 478.258 1137.1 483.758 1146.1 484.058C1161.9 484.658 1173.4 476.658 1175.6 460.658C1177.4 447.658 1174.2 427.558 1169.4 415.258C1171.3 415.858 1173.3 415.258 1175.1 415.658C1175.6 409.458 1174.7 404.558 1172.5 398.758C1169.4 390.558 1169.4 382.858 1161.2 388.858C1160.4 382.458 1154.9 378.258 1153 372.358C1151.5 367.758 1152.6 363.658 1150.9 359.058C1147.6 349.858 1139 339.958 1129 338.558C1103.4 335.058 1083.1 378.758 1072.8 395.658" fill="#E49D2C"/>
<path d="M1084.4 431.658C1089.3 438.458 1095.9 444.358 1101.8 450.258C1102.4 449.458 1104.9 448.358 1105.6 447.658" stroke="#351F5D" stroke-width="4" stroke-miterlimit="10" stroke-linecap="round" stroke-linejoin="round"/>
<path d="M1131.1 432.358C1121.3 433.158 1093.7 441.158 1110.4 452.658C1116.7 457.058 1121.3 456.158 1127.8 451.958C1135.9 446.758 1132.5 441.258 1131.1 432.358Z" fill="#351F5D" stroke="#351F5D" stroke-width="4" stroke-miterlimit="10" stroke-linecap="round" stroke-linejoin="round"/>
<path d="M1152.2 434.658C1158.3 435.258 1163.8 432.058 1166.1 425.958C1167.2 422.958 1164.6 407.558 1159 410.358C1152.9 413.458 1141.4 422.058 1139.9 428.258C1142.9 431.258 1145.8 433.958 1152.2 434.658Z" fill="#351F5D" stroke="#351F5D" stroke-width="4" stroke-miterlimit="10" stroke-linecap="round" stroke-linejoin="round"/>
<path d="M1131.1 432.358C1133.5 430.258 1135.7 427.758 1138.9 428.058" stroke="#351F5D" stroke-width="4" stroke-miterlimit="10" stroke-linecap="round" stroke-linejoin="round"/>
<path d="M1163 410.558C1163.9 409.858 1165 409.158 1166 408.458C1164.2 399.758 1161 390.258 1159.7 381.358" stroke="#351F5D" stroke-width="4" stroke-miterlimit="10" stroke-linecap="round" stroke-linejoin="round"/>
<path d="M1165.8 447.858C1159.6 458.058 1147.3 461.858 1137.4 465.458" stroke="#351F5D" stroke-width="4" stroke-miterlimit="10" stroke-linecap="round" stroke-linejoin="round"/>
<path d="M1100.8 437.558C1101.9 428.458 1117.1 431.158 1122.6 425.658" stroke="#351F5D" stroke-width="4" stroke-miterlimit="10" stroke-linecap="round" stroke-linejoin="round"/>
<path d="M1154.1 403.058C1146.1 405.158 1139.9 414.858 1135 419.358" stroke="#351F5D" stroke-width="4" stroke-miterlimit="10" stroke-linecap="round" stroke-linejoin="round"/>
<path d="M1137.6 432.358L1152.4 454.158L1144.6 457.058" stroke="#351F5D" stroke-width="4" stroke-miterlimit="10" stroke-linecap="round" stroke-linejoin="round"/>
<path d="M1113 393.058C1101.8 400.558 1086.9 404.358 1079.4 415.858C1086 420.658 1091 428.758 1093.5 436.558C1089.5 435.158 1084.6 434.358 1080.9 432.658C1064.6 424.758 1055.2 408.158 1048.2 392.458C1046.3 388.258 1040.2 378.258 1043.1 373.458C1044.8 370.658 1057.8 369.058 1057.7 371.658C1058 361.558 1055.8 346.358 1062.9 338.158C1064.2 340.958 1065.5 344.058 1066.3 347.058C1068.8 341.958 1071.3 335.358 1075.2 331.158C1075.6 330.758 1085.3 323.558 1085.3 325.058C1084.9 340.658 1098.6 324.058 1104.1 324.158C1104.3 327.958 1104 332.158 1106 335.358C1110.1 332.858 1118.7 319.458 1124.3 321.358C1129.9 323.358 1126.8 331.358 1129 335.858C1129 335.858 1140.1 330.758 1141 330.158C1140.5 346.358 1151.6 345.258 1161.5 357.058C1170.4 367.658 1170.5 375.558 1167.8 388.358C1164.9 384.058 1161.5 387.258 1162.3 391.158C1156 385.058 1147 382.558 1141.4 375.758C1137.5 371.058 1138 364.558 1134.4 359.958C1137.3 363.758 1131.6 375.358 1129.4 378.558C1126.1 383.258 1120.8 387.058 1116.4 390.658C1115.3 391.458 1114.2 392.258 1113 393.058Z" fill="#351F5D"/>
<path d="M1231.8 659.558C1229.6 656.958 1220.3 647.858 1216.2 649.858C1207.3 654.158 1219.5 660.858 1222.6 662.258C1236.6 668.758 1249.1 664.658 1247.4 647.758C1240.2 647.858 1239.4 655.258 1236.1 660.158C1234.1 659.258 1231.2 659.358 1229.3 658.358" fill="#351F5D"/>
<path d="M1073.5 732.058C1168.5 726.658 1263.6 718.558 1358 706.658C1380.6 703.758 1403.3 702.258 1425.9 699.758C1441.2 698.058 1459 699.358 1473.8 694.858C1439.2 692.258 1404.7 691.558 1369.9 691.558C1346.2 691.558 1322.4 691.558 1298.7 691.558C1278.4 691.558 1260.8 678.858 1239.8 680.258C1220.8 681.558 1208.3 689.658 1191.8 696.558C1185.2 699.358 1176.5 698.758 1169.3 699.758C1151.4 702.158 1133.5 705.258 1115.7 708.258C1081 714.058 1047.3 721.058 1014.1 732.858C1031.6 738.158 1055.6 733.058 1073.5 732.058Z" fill="#E49D2C"/>
<path d="M1241.2 833.258H1227.4V1319.26H1241.2V833.258Z" fill="#E49D2C"/>
<path d="M1237.2 656.358H1230.3V830.158H1237.2V656.358Z" fill="#E49D2C"/>
<path d="M1248.7 828.258H1222.5V847.658H1248.7V828.258Z" fill="#351F5D"/>
<path d="M1248.7 741.958C1248.7 750.458 1242 757.358 1233.7 757.358C1225.4 757.358 1218.7 750.458 1218.7 741.958C1218.7 733.458 1225.4 726.558 1233.7 726.558C1242 726.658 1248.7 733.558 1248.7 741.958Z" fill="#351F5D"/>
<path d="M1149.8 1361.36H1135.8L1228.7 1181.76L1239.6 1186.36L1149.8 1361.36Z" fill="#E49D2C"/>
<path d="M1326.2 1359.96H1313.3L1227.4 1181.16L1238.3 1176.76L1326.2 1359.96Z" fill="#E49D2C"/>
<path d="M1941 1217.96C1971.8 1135.76 1994.6 1051.36 2007.1 968.658C1944.2 1096.76 1797.4 1115.76 1670.2 1115.56C1407 1115.16 1135.7 1124.86 1015.5 1394.26C909.4 1632.06 855.4 1892.66 890.5 2152.06C928.5 2109.26 940.5 2053.96 983.5 2011.76C1119.3 1878.56 1263.3 1816.26 1431.4 1737.96C1555.9 1679.96 1677.8 1671.76 1765.3 1549.26C1835.5 1450.96 1896.5 1336.76 1941 1217.96Z" fill="#3089A2"/>
<path d="M519.7 2180.26C562.5 2296.86 666.5 2339.96 780.9 2362.96C836.9 2374.26 874.5 2368.06 918.1 2409.86C965.6 2455.36 997.9 2530.96 1004.7 2595.76C1034.6 2490.36 1026.7 2322.66 1009.8 2212.06C981.3 2024.96 815.2 1972.76 652.3 1928.16C539 1897.16 509.6 1875.16 457.2 1772.86C462.3 1909.46 472.2 2050.96 519.7 2180.26Z" fill="#E49D2C"/>
<path d="M874.4 2559.96C893.6 2468.26 883.4 2320.96 868.1 2223.56C842.2 2058.66 718.4 2008.56 597.2 1965.16C512.9 1934.96 490.6 1914.96 449.3 1823.86" stroke="#351F5D" stroke-width="4" stroke-miterlimit="10" stroke-linecap="round" stroke-linejoin="round"/>
<path d="M905.8 2605.76C932.9 2493.66 925.9 2311.96 910.7 2191.56C885 1987.76 734.5 1921.36 587.1 1863.46C484.5 1823.16 457.9 1797.66 410.5 1683.96" stroke="#351F5D" stroke-width="4" stroke-miterlimit="10" stroke-linecap="round" stroke-linejoin="round"/>
<path d="M952.5 2629C985.9 2491.1 982.7 2341.06 964.1 2192.86C932.5 1942.06 747.4 1860.46 565.9 1789.16C439.7 1739.66 406.9 1708.26 348.6 1568.36" stroke="#351F5D" stroke-width="4" stroke-miterlimit="10" stroke-linecap="round" stroke-linejoin="round"/>
<path d="M836.9 2607.86C856.1 2516.16 845.9 2368.86 830.6 2271.46C804.7 2106.56 680.9 2056.46 559.7 2013.06C475.4 1982.86 453.1 1962.86 411.8 1871.76" stroke="#351F5D" stroke-width="4" stroke-miterlimit="10" stroke-linecap="round" stroke-linejoin="round"/>
<path d="M806 2378.5C779 2128.5 619 2085 455 2037.5" stroke="#351F5D" stroke-width="4" stroke-miterlimit="10" stroke-linecap="round" stroke-linejoin="round"/>
<path d="M755.7 2367.26C729.8 2202.36 606 2152.26 484.8 2108.86" stroke="#351F5D" stroke-width="4" stroke-miterlimit="10" stroke-linecap="round" stroke-linejoin="round"/>
<path d="M718.2 2415.16C692.3 2250.26 568.5 2200.16 447.3 2156.76" stroke="#351F5D" stroke-width="4" stroke-miterlimit="10" stroke-linecap="round" stroke-linejoin="round"/>
<path d="M519.7 2180.26C562.5 2296.86 666.5 2339.96 780.9 2362.96C836.9 2374.26 874.5 2368.06 918.1 2409.86C965.6 2455.36 997.9 2530.96 1004.7 2595.76C1034.6 2490.36 1026.7 2322.66 1009.8 2212.06C981.3 2024.96 815.2 1972.76 652.3 1928.16C539 1897.16 509.6 1875.16 457.2 1772.86C462.3 1909.46 472.2 2050.96 519.7 2180.26Z" stroke="#351F5D" stroke-width="4" stroke-miterlimit="10"/>
<path d="M302.5 1384.56C391.9 1452.76 525.8 1430.46 534.7 1572.06C536.5 1600.36 527.1 1624.06 548.4 1648.06C570 1672.46 621.1 1659.56 635.5 1696.36C661.5 1762.56 544.1 1816.16 558.3 1877.86C566.3 1912.26 599.2 1896.56 608.8 1922.46C614.6 1938.16 588.3 1987.26 587.9 2006.66C585.7 2110.66 705.1 2079.06 777.7 2117.36C767.8 2081.26 739.7 2061.76 721.7 2031.56C675.3 1953.76 754.1 1962.66 747.2 1898.66C744 1868.66 700.8 1871.96 702.9 1843.86C703.8 1832.56 749 1793.36 756.5 1775.26C831.3 1592.86 810.1 1272.96 588.7 1196.66C515.6 1171.46 426.6 1181.26 354.9 1152.66C236.5 1105.46 358.5 999.158 277.9 930.858C223.7 884.958 185.2 861.558 186.1 815.358C187 770.658 203.7 701.358 238.3 675.258C109.9 742.658 95.7004 902.658 203.8 1002.06C324.8 1113.36 177.6 1227.86 267.7 1349.36C278 1363.36 289.8 1374.86 302.5 1384.56Z" fill="#F9CA66"/>
<path d="M523.8 1645.56C501.3 1646.06 479.9 1644.46 461.8 1630.56C451 1622.26 438 1611.16 454.5 1600.36C463.9 1594.16 477.8 1596.06 488.6 1596.46C521.4 1597.76 563.2 1599.16 587.8 1573.56C611.3 1548.96 616.6 1512.76 614.6 1480.16C570.1 1508.06 512.9 1579.06 450.8 1545.76C484.1 1543.46 563.4 1509.26 583.4 1481.46C604.4 1452.46 606.2 1401.06 587.2 1370.46C547.9 1402.86 494.6 1500.16 431.3 1484.26C463.3 1471.66 520.1 1415.76 540.1 1385.56C562.5 1351.66 544.7 1318.46 527.1 1284.66C509.2 1309.36 460.9 1412.16 418.4 1394.16C428.4 1343.86 549 1293.06 463.3 1243.26C474.5 1249.76 432.6 1306.16 427.9 1311.76C421.7 1319.06 395.3 1335.86 393.7 1342.86C401.4 1308.56 432.5 1284.96 443.9 1251.96C454.8 1220.46 403 1237.16 407.9 1209.36C383.3 1231.86 321.9 1219.46 314.4 1259.26C308.3 1291.76 335.5 1329.16 347.7 1357.36C317.7 1351.56 281.6 1304.16 291.7 1273.46C270.7 1285.76 240.4 1309.26 242.7 1336.96C245.7 1372.86 291.9 1394.06 319.7 1407.76C287.2 1411.06 247.9 1384.16 219.3 1372.36C211.9 1390.16 200.1 1409.96 207.7 1429.76C214.7 1447.96 235.8 1460.76 252.3 1469.26C263.4 1474.96 295.9 1492.56 308 1490.76C269.4 1496.56 230.1 1480.86 194.9 1467.16C186.8 1493.06 176.3 1524.76 197.7 1547.76C227.4 1579.46 295.3 1561.56 332.9 1573.26C316.5 1594.66 192.7 1577.16 194.4 1569.46C186.5 1605.16 210 1622.86 242.6 1627.36C259.6 1629.66 277.5 1629.46 294.5 1627.86C297.8 1627.56 344 1625.36 341.6 1628.56C317.2 1661.16 245.8 1648.16 213.3 1639.46C206.9 1665.16 207.6 1698.86 224.7 1720.46C270.9 1779.06 346.9 1737.96 394.6 1706.16C412 1694.56 417.2 1702.86 438.4 1709.96C491.1 1727.66 529.8 1704.26 568.5 1669.66C576.1 1662.86 583.9 1655.56 589.3 1646.76C590.8 1644.36 595.7 1627.46 597 1626.86C574 1637.56 548.9 1644.96 523.8 1645.56ZM402.9 1452.66C400.4 1437.06 437.3 1407.46 451 1418.86C470.1 1434.96 406.8 1477.26 402.9 1452.66Z" fill="#3B5391"/>
<path d="M372.1 1546.76C373.9 1577.26 377.8 1607.06 389.4 1642.46C393.1 1653.76 396.4 1669.36 405.6 1677.06C408.8 1653.56 402.7 1622.06 397.1 1599.26C385.8 1553.56 381.2 1509.26 377 1462.46C374.3 1432.46 368.6 1403.46 368.1 1373.36C367.6 1345.66 373.1 1319.56 374.8 1292.36C361.5 1328.26 359.4 1374.26 362.1 1412.06C365.4 1457.06 369.4 1501.76 372.1 1546.76Z" fill="#351F5D"/>
<path d="M322.7 1897.86L348.2 1916.66L423.8 1844.66L347.4 1864.06L322.7 1897.86Z" fill="#E49D2C"/>
<path d="M693 1211.46C693 1211.46 725.2 1473.16 678.1 1578.06C654.5 1630.66 377.3 1895.66 377.3 1895.66L346.4 1863.26C346.4 1863.26 369.3 1767.16 410.6 1709.06C451.9 1650.96 552.5 1531.06 552.5 1531.06L517.1 1238.26L693 1211.46Z" fill="#F9CA66"/>
<path d="M360.2 1917.56C361.7 1921.36 361.7 1921.56 365.7 1923.36C371.6 1925.96 382.3 1926.06 388.7 1926.46C394.7 1926.86 405.5 1927.56 405.7 1932.76C390.9 1933.26 371.3 1933.96 358.8 1934.46C347.1 1934.86 332.1 1922.96 329 1911.66C326.5 1914.66 326.1 1913.96 324.2 1911.46C322 1908.46 315.9 1900.76 316.9 1896.86C317.8 1893.26 326.9 1889.86 329.8 1887.46C329.4 1887.76 347.5 1909.06 350.4 1909.86C355.1 1911.26 356.3 1908.16 358.1 1912.36C358.9 1914.26 359.6 1915.96 360.2 1917.56Z" fill="#3B5391"/>
<path d="M618 737.358C601.1 727.758 564.1 727.658 545.8 733.258C503.4 746.058 457.7 786.258 424 813.858C399.2 834.258 380 847.458 388.4 876.058C425.9 1003.66 475.4 1167.36 515.8 1294.36C563.7 1272.76 644 1216.16 695.1 1204.66C729.4 1196.96 762.9 1185.06 797.3 1178.16C797.5 1166.86 791.3 1157.66 787 1147.46C776.8 1123.46 770.2 1099.06 763.1 1074.06C741.1 997.058 773.4 954.558 741.9 881.058C728.5 849.858 648.6 754.858 618 737.358Z" fill="white"/>
<path d="M430.1 794.358C417.2 804.558 405.5 822.658 403.5 833.758C425 841.658 450.4 841.858 472.6 847.158C494.3 852.458 518.7 854.058 532.6 836.658C519.1 828.658 437.3 797.458 430.1 794.358Z" fill="#351F5D"/>
<path d="M500.6 738.158C491.3 740.058 482.7 743.258 479.2 751.358C473.9 763.958 483.3 779.458 492.9 787.358C505 797.258 507.5 791.558 510.4 778.958C513.9 763.858 518.7 749.058 522 733.958C521.9 733.958 522.1 734.058 522.1 733.958C516.1 735.858 508.1 736.558 500.6 738.158Z" fill="#351F5D"/>
<path d="M1084.3 1925.06L1116 1925.36L1094.1 1813.16L1059.8 1884.06L1084.3 1925.06Z" fill="#E49D2C"/>
<path d="M701.9 1369.16C683.8 1352.36 665.9 1335.56 647.9 1318.96C668.1 1278.16 690 1236.56 714.3 1197.96C859.3 1253.36 966.4 1349.36 1025.1 1496.46C1070.7 1610.76 1109.2 1776.56 1110.8 1897.96L1075 1909.26C1075 1909.26 996.4 1808.76 978.5 1739.66C963.6 1682.26 970 1622.16 936.3 1570.96C903.7 1521.56 848.3 1496.06 803.7 1459.46C768.8 1430.96 735.2 1400.16 701.9 1369.16Z" fill="#F9CA66"/>
<path d="M1122.8 1923.06C1126.2 1925.36 1129.6 1927.56 1133.6 1929.56C1139.4 1932.46 1150.1 1932.96 1156.5 1933.66C1162.5 1934.26 1173.3 1935.56 1173.2 1940.76C1158.4 1940.66 1138.8 1940.46 1126.2 1940.36C1114.5 1940.26 1111.3 1938.26 1100.1 1935.26C1101.5 1938.96 1100.6 1938.96 1097.5 1939.26C1093.8 1939.66 1084.1 1940.96 1081.2 1938.16C1078.5 1935.56 1080.2 1925.96 1079.7 1922.26C1079.8 1922.76 1107.7 1923.56 1110.5 1922.56C1115.1 1920.96 1114.3 1917.66 1118.2 1920.16C1119.7 1921.06 1121.3 1922.06 1122.8 1923.06Z" fill="#3B5391"/>
<path d="M844.4 473.758C899.7 480.558 896.9 520.258 892.8 532.258C877.9 577.058 667.5 763.658 656.1 782.658C633.9 819.758 619.2 744.658 585.2 735.558C574 732.558 562.7 730.558 551.7 727.558C576.2 713.758 744.6 551.358 769.3 535.658C772.7 533.458 669.8 536.858 633.3 534.358C609.9 532.758 558.2 546.558 551.1 512.058C544.7 480.958 567 468.758 593.8 468.558C676.7 468.058 761.9 463.658 844.4 473.758Z" fill="white"/>
<path d="M449.7 1390.86C346.4 1642.06 459.2 1915.46 778.7 1910.26C800 1909.96 884.3 1911.26 945.5 1892.06C1071.4 1852.46 1195.4 1466.26 1002 1195.16C903.4 1248.96 837 1149.46 807.5 1079.86C824.5 1074.66 843 1066.06 859.6 1061.16C847.9 999.958 781.8 759.158 560.1 826.658C355.9 888.758 415.8 1079.86 453.2 1191.26C457.7 1204.56 512.9 1169.96 527.9 1168.76C535.2 1198.46 553.3 1382.96 449.7 1390.86Z" fill="#351F5D"/>
<path d="M520.1 1402.26C464.9 1650.16 562.1 1938.76 936.9 1892.86C1142.2 1867.76 1236.5 1439.16 1030.8 1169.46C934.6 1223.06 893.4 1140.56 860.8 1071.36C877.5 1066.26 895.7 1057.66 912.1 1052.76C897.6 991.858 820.6 752.258 601.9 819.458C400.5 881.258 469.2 1071.36 511.6 1182.26C516.7 1195.56 570.4 1161.06 585.3 1159.86C593.8 1189.36 623.3 1394.36 520.1 1402.26Z" fill="#E05E5E"/>
<path d="M490.2 420.658L447.8 438.958L653.6 1130.26L736.2 1096.36L490.2 420.658Z" fill="#351F5D"/>
<path d="M853.3 1257.46C860.1 1262.36 867.3 1262.86 869.1 1253.66C870.1 1248.66 855.2 1219.86 876.8 1224.06C894.6 1227.56 899.9 1276.86 902.3 1289.76C906.2 1311.46 906.7 1334.66 912.2 1355.96C918.6 1380.76 929.8 1424.86 962 1427.16C983.1 1428.66 1003.1 1404.76 995.3 1384.36C992.3 1376.46 986.5 1369.66 977.2 1373.06C964.8 1377.56 971.1 1385.26 972.7 1393.26C973.9 1399.26 979.9 1401.16 971.4 1406.96C949.6 1421.76 931.9 1377.36 929.1 1363.96C924.4 1341.46 926.3 1318.36 923.3 1295.76C920.1 1271.46 913.2 1246.66 896.8 1227.66C883.4 1212.06 848 1202.66 840 1228.86C837.1 1238.56 845 1251.36 853.3 1257.46Z" fill="#351F5D"/>
<path d="M682.1 1314.56C680.3 1322.76 675.3 1327.86 667.8 1322.26C663.7 1319.16 655.6 1287.76 642.3 1305.36C631.3 1319.86 660.3 1360.06 667.2 1371.26C678.8 1389.96 694 1407.66 704 1427.16C715.8 1449.96 736.9 1490.26 714.4 1513.46C699.7 1528.66 668.9 1524.16 661 1503.86C658 1496.06 657.7 1487.06 667 1483.36C679.3 1478.46 679.7 1488.36 683.8 1495.36C686.9 1500.66 683.8 1506.06 693.9 1504.66C720 1501.16 703.5 1456.26 696.6 1444.46C685 1424.56 668.3 1408.66 655.3 1389.76C641.4 1369.56 630 1346.46 629.5 1321.36C629.1 1300.86 649.2 1270.16 672.6 1284.26C681.6 1289.66 684.3 1304.46 682.1 1314.56Z" fill="#351F5D"/>
<path d="M838.6 1610.66L937.3 1581.66L997.9 2027.96L838.6 1610.66Z" fill="#351F5D"/>
<path d="M449.7 423.858L722.4 1239.06L859.5 1621.66" stroke="white" stroke-width="4" stroke-miterlimit="10"/>
<path d="M462.4 429.758L881.7 1623.16" stroke="white" stroke-width="4" stroke-miterlimit="10"/>
<path d="M473.3 422.258L906.2 1624.76" stroke="white" stroke-width="4" stroke-miterlimit="10"/>
<path d="M483.4 417.258L930.8 1626.36" stroke="white" stroke-width="4" stroke-miterlimit="10"/>
<path d="M526.2 555.158C527.6 548.458 526.2 534.158 533.8 530.458C537.4 528.658 542.7 529.658 546.6 529.258C551.6 528.658 556.8 527.858 561.5 525.758C564.5 524.458 570.3 522.758 571.7 519.558C573 516.658 571.6 511.058 571.4 507.958C571 503.858 570.4 499.758 569.9 495.558C568.5 484.158 567.1 485.558 555.3 481.658C543.8 477.958 531.6 474.858 521.4 468.058C510.6 460.958 506.3 451.658 494.3 446.158C483.3 441.058 473 440.558 463.6 448.858C460 451.958 441.5 467.258 452.6 470.158C460.4 472.258 466.4 464.358 472.5 461.058C478.2 457.958 487.7 462.858 492.6 465.558C499.2 469.058 503.4 474.858 510.3 478.058C513.5 479.558 517.2 479.958 520.3 481.658C515.8 478.958 508.5 478.358 503.4 478.858C496 479.658 489 484.658 483.5 489.458C477.6 494.658 475.4 503.058 471.6 509.758C468 516.058 464.2 527.958 478.1 523.058C485 520.658 484.6 513.058 487.5 507.658C490.2 502.658 494.8 494.158 501.1 493.458C509.2 492.658 518.4 494.858 526.3 496.258C518.8 498.758 511.4 503.958 504.9 508.258C495.6 514.358 491.5 522.258 485.5 531.058C483.2 534.558 473.6 547.458 483.9 547.558C493.3 547.558 501.1 533.758 506.5 527.758C508.4 525.658 510.3 523.558 512.3 521.658C516.4 517.958 521.3 515.058 526.5 513.358C521.3 515.158 519.5 524.558 518.2 529.158C516.1 536.358 515.5 544.058 516.6 551.458C517.3 556.158 521.7 566.558 525.6 557.858C525.7 556.958 526 556.058 526.2 555.158Z" fill="#E49D2C"/>
<path d="M458.6 454.358C459.3 455.658 461.7 457.558 461.3 459.158C460.9 460.758 455.6 464.758 453 465.258" stroke="#351F5D" stroke-width="4" stroke-miterlimit="10" stroke-linecap="round" stroke-linejoin="round"/>
<path d="M688.8 1184.56C662 1164.36 619.4 1159.26 589.8 1143.06C587.8 1153.46 582.5 1164.46 577.1 1173.86C593.9 1178.76 596.3 1196.16 608.6 1206.26C622.6 1217.76 639.3 1217.86 656.3 1215.36C656.4 1220.06 653.5 1223.36 654.2 1228.36C646.7 1226.76 639.3 1223.46 631.5 1224.36C624.7 1225.16 620.1 1230.16 626.9 1234.36C630.7 1236.76 637.2 1236.96 641.5 1238.46C645.1 1239.66 648.8 1241.96 652.7 1242.46C660.9 1243.46 669.7 1239.16 676.4 1234.86C690 1248.56 692.1 1213.26 692.7 1205.76C692.5 1207.76 701.6 1218.76 702.9 1220.86C705.7 1225.36 708.6 1231.76 712 1235.86C715.3 1239.76 732.3 1254.36 735.3 1243.46C736.3 1239.66 728.3 1233.26 726.2 1229.96C722.4 1224.16 718.5 1218.56 714.4 1212.96C706.8 1202.76 698.9 1192.26 688.8 1184.56Z" fill="#E49D2C"/>
<path d="M657.3 1229.36C647 1232.06 635.9 1234.16 626.1 1236.76C619.4 1238.76 618.9 1244.16 625.1 1245.06C636.1 1246.76 665.3 1245.76 664.6 1231.86" fill="#E49D2C"/>
<path d="M662.3 1214.26C655.9 1215.76 645.5 1218.76 638.5 1222.86C640.4 1238.46 663 1228.66 664.1 1221.36" fill="#E49D2C"/>
<path d="M728.1 1229.46C718.2 1233.76 727.3 1238.36 730.7 1243.46C732.2 1242.06 734.1 1241.16 736.2 1241.36" stroke="#E05E5E" stroke-width="4" stroke-miterlimit="10" stroke-linecap="round" stroke-linejoin="round"/>
<path d="M657.3 1214.46C657.4 1220.86 654.2 1227.36 651.1 1232.76C644.2 1230.96 626.9 1234.16 620.5 1236.06" stroke="#E05E5E" stroke-width="4" stroke-miterlimit="10" stroke-linecap="round" stroke-linejoin="round"/>
<path d="M654.4 1226.06C650.6 1223.26 638.7 1221.96 622.4 1224.86" stroke="#E05E5E" stroke-width="4" stroke-miterlimit="10" stroke-linecap="round" stroke-linejoin="round"/>
<path d="M664.7 1243.56C668 1230.96 672.2 1224.96 672.9 1216.06" stroke="#E05E5E" stroke-width="4" stroke-miterlimit="10" stroke-linecap="round" stroke-linejoin="round"/>
<path d="M685.4 1209.86C683.6 1214.96 682.2 1228.46 678.5 1233.26C675.6 1237.06 671.4 1238.36 667.1 1239.86" stroke="#E05E5E" stroke-width="4" stroke-miterlimit="10" stroke-linecap="round" stroke-linejoin="round"/>
<path d="M590 1140.86L569.9 1227.56L361.4 1164.26C361.4 1164.26 286.5 932.458 322.2 899.558C357.8 866.758 394.9 840.158 394.9 840.158L430.6 934.058L430.4 985.958C431.5 1001.76 433.5 1017.66 433.3 1033.46C433.2 1043.26 435 1053.16 434.5 1062.96C434 1072.46 430.8 1085.06 440.1 1091.86C449.9 1099.06 463.4 1102.96 475.2 1104.86C488.7 1106.96 501.1 1112.56 514.2 1116.76C539.4 1124.76 564.7 1132.76 590 1140.86Z" fill="white"/>
<path d="M965.6 1627.06L833.2 1656.56L823 1625.56L955 1596.06L965.6 1627.06Z" fill="#351F5D"/>
<path d="M523.3 482.158C515.2 479.458 505 476.158 496.7 479.458C483.6 484.658 472.6 498.858 468.7 512.058C476.6 503.458 476.6 516.558 475 521.158" stroke="#351F5D" stroke-width="4" stroke-miterlimit="10" stroke-linecap="round" stroke-linejoin="round"/>
<path d="M532.3 496.758C524.9 493.358 506.8 507.258 501.3 511.858C491.7 519.758 483.6 530.458 478 541.458C480.1 540.358 487 533.258 489.3 537.858C490.4 540.058 485.1 543.858 484.1 546.058" stroke="#351F5D" stroke-width="4" stroke-miterlimit="10" stroke-linecap="round" stroke-linejoin="round"/>
<path d="M531 511.758C514.9 513.458 515.3 542.758 515.9 553.658C517.7 550.758 519.6 547.258 523.7 548.058C524.4 550.158 524.5 553.158 524.5 554.758" stroke="#351F5D" stroke-width="4" stroke-miterlimit="10" stroke-linecap="round" stroke-linejoin="round"/>
<path d="M410 1115.96C424.1 1109.36 432 1098.46 443.3 1093.96" stroke="#351F5D" stroke-width="4" stroke-miterlimit="10" stroke-linecap="round" stroke-linejoin="round"/>
<path d="M404 1089.56C414.2 1089.16 427.4 1086.96 437.3 1089.36C434.1 1095.36 425.4 1096.76 419.7 1099.76" stroke="#351F5D" stroke-width="4" stroke-miterlimit="10" stroke-linecap="round" stroke-linejoin="round"/>
<path d="M493 745.758C490.4 761.358 490.6 768.658 490.8 782.958C490.6 804.658 500.1 804.858 532.7 836.658C498.5 822.058 437.3 799.358 437.3 799.358C438.6 757.258 436.5 691.958 442.8 691.458C445.9 691.258 456.5 704.658 458.8 706.658C467.8 714.758 477.6 722.058 487.5 729.058" fill="#E49D2C"/>
<path d="M548.6 644.458C549 645.058 549.3 645.758 549.6 646.558C550.9 650.258 550.9 653.958 551 657.758C551.3 671.758 550.6 687.558 545.2 700.658C540.6 711.758 536.3 721.058 533.8 733.058C531.5 744.658 528.6 756.458 518.5 763.758C500.4 777.058 480.3 758.558 464.9 750.458C456 745.758 449.4 741.258 446.8 731.358C444.2 721.358 447.2 711.158 444 701.358C440.1 689.458 421 675.058 435.2 663.758C450.2 651.858 452.9 673.158 459.4 652.358C461.7 645.058 460.8 633.258 466.7 628.558C477.1 620.158 503 625.058 514.6 628.958C522 631.458 529 634.158 536 637.458C540.5 639.658 545.8 640.258 548.6 644.458Z" fill="#E49D2C"/>
<path d="M492.7 641.858C488.8 642.058 485.1 643.558 481.8 646.758C476.5 651.858 472.6 689.158 473.3 688.958C456.9 694.558 453.5 657.658 437 671.558C427.7 679.358 445.9 683.558 445.6 707.958C445.4 723.458 426.4 702.958 425.5 701.958C420.4 695.758 418.2 682.058 414.8 674.558C402.8 647.858 383.2 610.458 428.5 609.158C425.8 609.258 433.5 595.758 434.5 594.758C439.1 590.258 446.8 589.058 452.8 588.058C469.5 585.158 490.2 586.858 506.8 589.258C538 593.858 581.8 614.458 613.7 606.858C626.7 603.758 657 579.558 629.4 566.958C635.7 564.758 643.7 565.758 648.4 570.858C672.9 597.158 623.7 624.358 604.2 631.458C585.6 638.158 570.6 644.258 550.4 644.058C531.2 643.858 512.1 640.658 492.7 641.858Z" fill="#351F5D"/>
<path d="M500.8 702.358C487.9 705.458 472.7 714.558 467.4 717.858C476.7 715.758 486.4 714.858 495.8 713.358C498.4 712.958 516.2 708.358 517.5 711.158C521.4 720.058 528.1 722.358 536.2 726.958C543.7 731.158 551.1 737.258 559.1 740.358C551.7 730.758 535 703.958 520 708.658C517.8 700.858 509.9 700.158 500.8 702.358Z" fill="#351F5D"/>
<path d="M500.2 690.858C491 689.658 485.5 688.058 484.2 678.958C483.4 673.558 485.2 660.258 490.7 657.858C494.1 656.458 500.1 658.558 503.4 659.158C510.5 660.458 523.9 661.058 525.7 669.758C529.7 669.658 529.8 670.058 532.9 671.558C540 667.058 559.6 666.258 565.5 673.958C570.2 680.058 564.6 694.358 558.7 698.458C542.3 709.958 527.3 691.158 529.7 675.358C523 668.358 521.1 677.258 518 682.058C512.7 690.058 509.8 692.158 500.2 690.858Z" fill="#351F5D"/>
<path d="M527.7 673.658C529.4 681.258 530 688.958 531.4 696.558C532 699.658 533.6 704.058 528.7 703.358C524.7 702.858 523.7 698.858 520.6 697.058C517.8 695.358 513.3 698.358 516.9 699.758" stroke="#351F5D" stroke-width="4" stroke-miterlimit="10" stroke-linecap="round" stroke-linejoin="round"/>
<path d="M534.7 719.758C527.9 740.558 530.7 778.358 495.2 766.258C480.4 761.258 478.3 745.458 479.2 731.758C480.8 708.558 494.4 706.658 514.3 705.058" stroke="#351F5D" stroke-width="4" stroke-miterlimit="10" stroke-linecap="round" stroke-linejoin="round"/>
<path d="M518.4 713.658C518.6 722.758 523.1 722.558 530.1 727.058C517.3 730.558 500.3 728.858 493.7 715.458C493.5 715.358 493.5 715.358 493.7 715.458C495.7 716.158 518.4 716.658 518.4 713.658Z" fill="#E05E5E"/>
<path d="M493.4 659.658C490.4 658.958 486.4 659.858 483.4 660.358C477.7 661.458 472 662.658 466.3 663.958C461.5 665.058 456.3 665.858 451.7 667.158" stroke="#351F5D" stroke-width="4" stroke-miterlimit="10" stroke-linecap="round" stroke-linejoin="round"/>
<path d="M446.4 438.258C449 437.658 451.6 436.758 454.2 435.958C461.8 433.658 469.7 432.258 477.2 429.658C480.5 428.558 483.4 427.258 486.9 426.358C490.2 425.558 493.4 424.358 495.2 421.358C503.6 407.258 504.2 388.958 497.1 373.658C487 351.858 458.6 346.258 451.1 343.858C455 345.158 463.4 328.758 464.3 326.158C466.9 318.858 467.4 310.558 465.6 303.058C460.6 282.458 440.5 273.958 421.5 283.858C411.4 289.158 409.4 298.358 407.6 308.758C403.4 333.658 410 352.858 418.2 376.558C426.1 399.358 446.6 428.458 446.4 438.258Z" fill="#E05E5E"/>
<path d="M444.9 438.358C462.5 433.158 476.5 409.358 473 391.558C469.1 372.058 451.6 369.058 437.7 358.658C424.6 348.858 409.5 336.158 410.3 318.258C410.6 311.458 412.7 293.758 421.2 292.558C434.9 290.558 435.6 315.958 432.6 323.758C426.2 340.558 417.9 330.258 419.8 317.158C420.2 314.358 420.9 307.458 424.8 309.558C427.5 310.958 425.8 321.258 425.9 323.758" stroke="#351F5D" stroke-width="4" stroke-miterlimit="10" stroke-linecap="round" stroke-linejoin="round"/>
<path d="M1421.6 2456.36C1396.8 2448.06 1374 2437.86 1359.7 2415.46C1351.2 2402.16 1341.3 2384.86 1363.7 2379.46C1376.5 2376.46 1390.8 2383.96 1402.5 2388.66C1437.9 2403.06 1483.1 2421.06 1520.1 2402.76C1555.6 2385.16 1575.6 2347.56 1586.3 2311.16C1526.6 2324.16 1435.9 2379.26 1381.2 2318.16C1418.5 2328.86 1518.8 2322.66 1551.7 2300.16C1586.1 2276.76 1608.4 2221.16 1599.7 2180.26C1543.9 2200.16 1447.2 2285.66 1384.2 2243.16C1424.2 2242.06 1508.4 2203.26 1542.2 2178.06C1580.1 2149.86 1573.7 2106.46 1567.8 2062.56C1538.5 2082.46 1445.1 2175.86 1405.7 2139.46C1436.4 2088.36 1588.4 2080.46 1514.5 1992.06C1524.2 2003.56 1456.1 2048.76 1448.7 2053.06C1439.1 2058.56 1403.5 2066.56 1399 2073.66C1420.9 2039.16 1464.3 2025.66 1489.9 1994.06C1514.3 1963.96 1451 1961.76 1467.4 1933.16C1431.6 1948.06 1369.3 1910.26 1345.4 1950.86C1325.8 1984.06 1340.8 2035.66 1343.1 2071.36C1312.6 2053.16 1291.8 1987.06 1314.9 1957.46C1287.1 1962.56 1244.7 1976.46 1236.3 2007.56C1225.4 2048.06 1267.6 2089.46 1292.5 2115.46C1255.6 2106.26 1223.3 2061.26 1196.7 2037.16C1181.6 2053.76 1160.9 2070.76 1161.4 2095.36C1161.9 2118.06 1179.9 2140.36 1194.5 2156.16C1204.4 2166.76 1233 2198.86 1247 2201.66C1202.5 2192.76 1165.7 2160.06 1132.6 2131.26C1113.5 2156.36 1089.5 2186.86 1103.9 2220.56C1123.8 2266.96 1205.2 2274.16 1241.7 2301.86C1215.3 2318.76 1086.8 2250.76 1091.7 2243.06C1068.9 2278.96 1087.7 2307.66 1121.5 2325.46C1139.1 2334.66 1158.8 2341.46 1178.1 2346.46C1181.9 2347.46 1233.2 2363.26 1229.3 2365.86C1189.7 2391.86 1116.7 2349.46 1084.7 2327.06C1067.6 2352.66 1055 2389.86 1065.1 2420.16C1092.5 2502.56 1191.9 2487.56 1256.7 2471.56C1280.3 2465.76 1282.7 2476.86 1303.1 2493.06C1353.7 2533.16 1405.4 2522.96 1461.3 2500.36C1472.3 2495.96 1483.7 2491.06 1493 2483.56C1495.6 2481.46 1507.7 2464.96 1509.3 2464.76C1479.7 2467.46 1449.2 2465.66 1421.6 2456.36ZM1365.5 2197.66C1368.9 2179.66 1421 2161.76 1431.4 2179.66C1446 2204.86 1360.1 2226.16 1365.5 2197.66Z" fill="#3089A2"/>
<path d="M1294.6 2288.46C1284.6 2322.56 1277 2356.66 1275.8 2399.96C1275.4 2413.86 1272.8 2432.16 1279.9 2444.16C1292.7 2419.76 1284.4 2388.66 1287.2 2361.46C1292.9 2306.96 1347.3 2130.26 1358.7 2097.06C1369.1 2066.56 1385.3 2040.16 1398 2011.16C1369.2 2045.16 1348.7 2094.66 1336.8 2137.16C1322.7 2187.66 1309.5 2238.06 1294.6 2288.46Z" fill="#351F5D"/>
<path d="M1151.1 1104.06C1149.9 1101.46 1183.3 1103.26 1185.6 1103.56C1179.5 1111.06 1173.6 1116.66 1168.8 1125.16C1163.8 1117.96 1154.8 1112.06 1151.1 1104.06Z" fill="#3089A2"/>
<path d="M1138.7 1045.86C1137.5 1043.26 1170.9 1045.06 1173.2 1045.36C1167.1 1052.86 1161.2 1058.46 1156.5 1066.96C1151.4 1059.76 1142.4 1053.86 1138.7 1045.86Z" fill="#F9CA66"/>
<path d="M1128.9 970.858C1128.1 968.058 1160.8 974.958 1163.1 975.558C1155.9 981.958 1149.3 986.658 1143.3 994.358C1139.3 986.558 1131.3 979.258 1128.9 970.858Z" fill="#3B5391"/>
<path d="M1086 1080.96C1084.8 1078.36 1118.2 1080.16 1120.5 1080.46C1114.4 1087.96 1108.5 1093.56 1103.8 1102.06C1098.8 1094.86 1089.7 1088.96 1086 1080.96Z" fill="#E05E5E"/>
<path d="M1081.9 1016.56C1080.9 1012.66 1125.9 1024.06 1129 1024.96C1118.7 1033.46 1109.2 1039.66 1100.4 1049.96C1095.6 1038.96 1084.9 1028.46 1081.9 1016.56Z" fill="white"/>
<path d="M1450.6 1971.26C1441.2 1926.26 1434.9 1870.56 1443 1824.76C1454.4 1759.46 1493 1722.36 1527.2 1669.96C1471.2 1682.16 1422.2 1718.46 1385.6 1761.56C1333.3 1823.16 1342.1 1898.36 1314.1 1968.86C1326.3 1968.36 1450.7 1971.96 1450.6 1971.26Z" fill="#351F5D"/>
<path d="M1320.7 1593.96C1355.4 1587.46 1390.2 1581.26 1424.7 1573.56C1456.2 1566.56 1495.6 1563.26 1523.5 1546.96C1555.7 1528.16 1592.7 1482.26 1576.8 1442.96C1556.1 1392.06 1496.9 1424.16 1458.3 1424.36C1396.3 1424.56 1333.1 1427.46 1273.7 1446.86C1263.1 1420.26 1256.2 1392.46 1243.6 1366.66C1229.1 1336.96 1224.4 1332.96 1195.7 1344.76C1179.3 1351.46 1162.3 1356.46 1145.2 1360.96C1157.3 1413.86 1151.8 1467.86 1156.4 1521.36C1158.7 1548.66 1168.3 1612.36 1195.1 1625.86C1208.8 1632.76 1240.7 1618.16 1253.8 1614.66C1287 1605.96 1278.8 1601.76 1312.6 1595.46C1315.2 1594.96 1318 1594.46 1320.7 1593.96Z" fill="#351F5D"/>
<path d="M1580.2 1414.96C1570.5 1417.66 1515 1401.76 1503.2 1398.96C1482.7 1394.06 1464.9 1386.86 1436.2 1381.56C1433.9 1408.56 1434.7 1443.66 1466.8 1441.86C1498.8 1440.06 1549.5 1423.66 1580.2 1414.96Z" fill="white"/>
<path d="M1217.9 2580.86L1435.6 2829.26L1453 2785.56L1333.1 2586.46L1217.9 2580.86Z" fill="#E49D2C"/>
<path d="M1417.2 2820.86C1412.7 2823.96 1408.2 2827.06 1403 2829.76C1395.3 2833.76 1387.9 2836.56 1379.6 2838.76C1376.2 2839.66 1373.3 2841.46 1369.8 2841.96C1360.6 2843.26 1366.5 2849.36 1364.6 2849.26C1381.2 2849.66 1411.2 2842.66 1427.7 2840.26C1443.2 2838.06 1448.6 2825.06 1452 2809.86C1455.5 2813.76 1456.1 2812.76 1458.4 2809.26C1461.1 2805.16 1468.8 2794.46 1467.3 2789.36C1465.9 2784.56 1453.6 2780.56 1449.5 2777.56C1450.1 2777.96 1437.5 2821.06 1433.6 2819.76C1427.4 2817.76 1428.4 2813.36 1423.2 2816.66C1421.2 2818.16 1419.2 2819.56 1417.2 2820.86Z" fill="#3B5391"/>
<path d="M1034.1 1858.26C1037.7 1864.36 1053.7 2338.16 1053.7 2338.16L1245.7 2779.06L1486.7 2744.06L1233 2314.56L1334.6 1853.86L1034.1 1858.26Z" fill="#F9CA66"/>
<path d="M1162.9 2139.36C1186.5 2123.96 1210.7 2109.36 1235.5 2095.96C1252.8 2086.66 1270.3 2077.86 1287.3 2067.86L1334.5 1853.76L1034.1 1858.16C1036.6 1862.36 1044.8 2085.26 1049.8 2225.86C1085.1 2194.06 1123.1 2165.36 1162.9 2139.36Z" fill="#E49D2C"/>
<path d="M788.1 2318.26L708.1 2848.36L749.9 2858.96L901.3 2340.36L788.1 2318.26Z" fill="#E49D2C"/>
<path d="M1173 1782.96C1170.5 1823.16 1164.7 1938.36 1164.1 1978.56C1162.8 2058.56 1122.6 2247.26 1147.5 2323.86C1177.5 2415.96 1358.4 2680.36 1383.7 2756.26" stroke="#351F5D" stroke-width="4" stroke-miterlimit="10" stroke-linecap="round" stroke-linejoin="round"/>
<path d="M1014.5 1829.16C992.9 1830.56 851.8 2096.36 785.2 2272.56C750.7 2363.86 687.1 2704.96 657.2 2815.86L889.5 2808.46C908.1 2715.06 895.3 2472.76 905.1 2377.76C912.3 2308.06 960.7 2263.76 1001.8 2211.96C1039.6 2164.26 1096.8 2091.86 1156 2071.76C1229 2047.06 1260.7 1978.46 1295 1913.36C1292.2 1918.66 1127.2 1869.26 1110.5 1864.66C1069.2 1853.36 1058.2 1826.36 1014.5 1829.16Z" fill="#F9CA66"/>
<path d="M1015.2 1871.66C1015.2 1908.56 1045.1 1938.46 1082 1938.46" stroke="#351F5D" stroke-width="4" stroke-miterlimit="10" stroke-linecap="round" stroke-linejoin="round"/>
<path d="M1167.8 1881.26C1142.6 1912.56 1068.8 1987.16 1028.3 2033.46C975.6 2093.66 890.2 2169.86 866.3 2246.76C837.6 2339.26 764.1 2729.96 741 2806.56" stroke="#351F5D" stroke-width="4" stroke-miterlimit="10" stroke-linecap="round" stroke-linejoin="round"/>
<path d="M691.6 2848.86C687 2851.86 682.4 2854.86 677.1 2857.46C669.3 2861.26 661.8 2863.86 653.5 2865.86C650.1 2866.66 646.9 2867.56 643.6 2868.76C641.4 2869.56 635.4 2873.86 633.6 2873.76C650.1 2874.56 667.6 2872.66 684.3 2871.86C699.9 2871.06 715.6 2869.36 730.7 2865.36C728.8 2870.26 730 2870.36 734.2 2870.76C739.1 2871.26 752.1 2873.16 756 2869.46C759.6 2865.96 757.5 2853.16 758.2 2848.16C758.1 2848.86 712.1 2849.56 708.3 2848.16C702.1 2845.96 703.3 2841.66 698 2844.86C695.7 2846.26 693.6 2847.56 691.6 2848.86Z" fill="#3B5391"/>
<path d="M1606.1 1527.06C1580.7 1499.66 1556.1 1434.86 1527 1432.36C1386.7 1420.66 1286.1 1503.06 1186 1592.16C1138.6 1634.26 1079.8 1703.66 990.9 1838.26C1041.1 1865.96 1067.1 1844.46 1116.7 1873.46C1140.1 1887.16 1230 1958.06 1257.9 1944.06C1273.3 1936.36 1282 1906.66 1292.5 1893.26C1310.8 1869.96 1322.3 1846.26 1337.7 1820.76C1358.2 1786.76 1378.7 1754.76 1410.4 1729.76C1429.9 1714.36 1451.8 1702.96 1473.2 1690.46C1518.4 1664.26 1580.9 1626.66 1609.4 1581.16C1623.2 1559.06 1619.2 1541.16 1606.1 1527.06Z" fill="white"/>
<path d="M1675.1 1468.96C1653.8 1426.86 1600 1421.06 1558.5 1417.46C1506.4 1412.96 1496 1436.46 1447.2 1453.96C1398.7 1471.36 1308.5 1544.36 1268.9 1576.56C1161.7 1663.96 1127.5 1774.96 1083.3 1910.26C1156.2 1949.76 1281.4 1989.86 1360.5 2003.26C1390.7 1936.76 1397.6 1799.36 1431.2 1744.36C1482.9 1659.66 1564.6 1652.96 1621.6 1596.86C1646.3 1572.46 1694.4 1507.06 1675.1 1468.96Z" fill="#3B5391"/>
<path d="M1761.9 1384.66C1765 1369.96 1764.9 1357.36 1759.9 1343.16C1757 1335.06 1756.6 1326.86 1750.8 1320.26C1745.4 1313.96 1737.9 1309.26 1730.3 1306.16C1714.8 1299.66 1695.4 1298.66 1680.7 1307.86C1673.9 1312.06 1674.4 1316.86 1665.6 1316.96C1658.5 1316.96 1646.5 1311.16 1643.6 1319.06C1642.3 1322.66 1646.7 1324.36 1642.8 1327.16C1641.3 1328.26 1631.2 1327.86 1629.2 1328.06C1631.3 1331.36 1632.8 1332.76 1632.8 1335.86C1628 1334.26 1622.8 1329.16 1618.4 1334.06C1616 1336.66 1619.2 1341.86 1617 1345.06C1613.7 1349.86 1604.2 1351.86 1602.5 1358.26C1599.2 1370.36 1622 1380.26 1630.1 1386.76C1606.2 1389.16 1578.8 1393.46 1534.2 1406.06C1541 1412.76 1594 1435.16 1601.4 1441.56C1610.2 1449.16 1633.3 1454.46 1660.7 1439.46C1715.7 1408.16 1709.4 1436.06 1729 1429.06C1749.4 1421.76 1757.6 1404.46 1761.9 1384.66Z" fill="#E49D2C"/>
<path d="M1695.3 1336.66C1687.1 1336.86 1675.4 1328.46 1678.4 1319.06" stroke="#351F5D" stroke-width="4" stroke-miterlimit="10" stroke-linecap="round" stroke-linejoin="round"/>
<path d="M1747.8 1339.16C1745.3 1352.56 1720.3 1345.76 1712.5 1345.86C1714.4 1358.76 1685.1 1381.06 1696.6 1389.56C1705.1 1388.06 1715.6 1387.56 1722.8 1392.96C1728.7 1397.36 1732.5 1405.16 1726.2 1410.96C1720.9 1415.86 1712.5 1412.86 1707.9 1418.16C1702.8 1424.06 1697.3 1437.96 1700.8 1445.66C1704 1452.76 1713.7 1455.16 1719.9 1458.86C1724.1 1461.36 1734 1472.06 1738.8 1470.46C1749.3 1466.86 1738.8 1444.96 1735.3 1439.66C1745.9 1432.26 1759.1 1453.86 1768 1457.66C1798.8 1470.76 1759.5 1431.56 1757.3 1426.86C1749.3 1409.56 1778.8 1433.46 1784.2 1435.86C1802.3 1444.06 1793.4 1427.66 1785.7 1420.36C1780.7 1415.56 1757.5 1389.96 1780 1398.46C1785.6 1400.56 1804.2 1423.86 1809.6 1420.76C1817.4 1416.36 1799.4 1399.96 1796.4 1396.86C1791.9 1392.16 1773.3 1373.06 1789.1 1378.86C1795.7 1381.26 1813.4 1397.46 1805.8 1379.46C1801 1367.86 1791.7 1361.56 1783.5 1352.86C1780.7 1349.86 1767.6 1336.46 1778.8 1336.26C1785.2 1336.16 1793.2 1351.56 1799.7 1348.36C1805.2 1345.66 1799.3 1340.66 1796.9 1337.56C1785.5 1323.36 1769.8 1307.76 1754.1 1298.56C1748.2 1295.06 1741.1 1290.26 1734.5 1294.06C1717.6 1303.56 1750.1 1326.66 1747.8 1339.16Z" fill="#351F5D"/>
<path d="M1687.6 1345.16C1675 1336.36 1651.4 1332.56 1640.7 1345.96C1627.2 1362.66 1647.5 1380.56 1662.2 1386.66" stroke="#351F5D" stroke-width="4" stroke-miterlimit="10" stroke-linecap="round" stroke-linejoin="round"/>
<path d="M1720.5 1403.06C1717.3 1394.96 1701 1395.26 1695.2 1399.96C1705.4 1395.46 1707.6 1405.76 1699 1409.96" stroke="#351F5D" stroke-width="4" stroke-miterlimit="10" stroke-linecap="round" stroke-linejoin="round"/>
<path d="M1532 1404.86C1504.2 1416.86 1361.9 1484.86 1341.4 1507.86C1353.2 1508.56 1431.7 1476.66 1442.9 1472.06C1475.1 1458.96 1527 1432.46 1542.9 1463.76C1542.9 1463.76 1582.4 1443.06 1596.5 1438.76L1532 1404.86Z" fill="#351F5D"/>
<path d="M1666.8 1456.06C1664.9 1443.46 1665.6 1439.26 1654.4 1430.76C1643.3 1422.36 1535.1 1409.96 1532 1404.76C1540.7 1419.26 1539.3 1447.36 1543 1463.66C1580.2 1459.76 1630.9 1446.66 1666.8 1456.06Z" fill="white"/>
<path d="M1186.1 1358.06C1211.6 1340.76 1236.4 1313.86 1220.9 1282.76C1217.4 1275.66 1215.3 1267.56 1210.7 1261.16C1207.1 1255.96 1201 1245.66 1194.4 1244.16C1190.4 1243.26 1184.1 1246.86 1179.5 1246.96C1173.2 1247.06 1161 1246.46 1165.3 1257.26C1167.9 1263.86 1174.5 1260.86 1179.2 1263.66C1187.4 1268.46 1188.4 1282.36 1189.1 1290.56C1172.6 1289.76 1156.7 1294.46 1143.7 1304.76C1128.5 1316.76 1100.3 1329.46 1091.3 1346.86C1091.1 1346.76 1092.2 1352.96 1092.1 1352.66C1107.4 1349.86 1112.5 1351.26 1121.5 1363.36C1141.4 1389.86 1163.2 1373.56 1186.1 1358.06Z" fill="#E49D2C"/>
<path d="M1623.8 1325.26L1612.3 1301.76L1603 1283.46L1583.1 1249.86C1583.1 1249.86 1580.3 1246.96 1552.5 1187.76C1524.7 1128.56 1517.3 1117.96 1492.6 1128.76C1466.6 1140.06 1320.8 1224.86 1320.8 1224.86L965.4 1423.06L1047 1364.06C1047 1364.06 1129.5 1289.06 1155.9 1251.06C1182.3 1213.06 1182.9 1200.46 1182.9 1200.46C1182.9 1200.46 1211.8 1210.06 1221.7 1196.96C1231.6 1183.86 1212 1180.36 1175.4 1172.76C1138.8 1165.16 1032.8 1110.96 1027.1 1121.46C1021.4 1131.96 1021.4 1131.96 1021.4 1131.96C1021.4 1131.96 1030.7 1153.96 999 1190.16C938.3 1259.26 695.5 1353.46 781.6 1477.76C831.9 1550.36 912.2 1574.46 975.4 1533.66C1042.7 1490.16 1125.6 1434.36 1194.3 1392.86C1222.9 1375.56 1402 1254.36 1431.5 1231.76C1477.2 1196.86 1505.1 1177.06 1524.5 1201.66C1543.8 1226.26 1608.8 1321.36 1608.8 1321.36L1623.8 1325.26Z" fill="#F9CA66"/>
<path d="M835 1515.86C831.9 1501.86 825.6 1488.26 820.3 1474.86C812.3 1454.56 823.5 1419.96 838.7 1405.86C867.6 1378.96 948.1 1314.26 976.1 1288.46C992.9 1273.06 1018.5 1250.66 1040 1242.16C1060 1234.16 1070.4 1238.86 1091.4 1240.66C1113 1242.46 1134.7 1245.26 1156.4 1243.66C1158 1243.56 1159.6 1243.36 1161.1 1243.26C1182.3 1211.36 1182.8 1200.46 1182.8 1200.46C1182.8 1200.46 1211.7 1210.06 1221.6 1196.96C1231.5 1183.86 1211.9 1180.36 1175.3 1172.76C1138.7 1165.16 1032.7 1110.96 1027 1121.46C1021.3 1131.96 1021.3 1131.96 1021.3 1131.96C1021.3 1131.96 1030.6 1153.96 998.9 1190.16C938.2 1259.26 695.4 1353.46 781.5 1477.76C798.3 1502.06 818.5 1520.96 840.3 1533.76C838.2 1527.86 836.3 1521.96 835 1515.86Z" fill="#E49D2C"/>
<path d="M1575.6 1250.76C1557 1218.46 1527.8 1144.16 1501.1 1149.16C1493.5 1150.56 1414.2 1195.06 1387.1 1212.06C1351 1234.66 1313.4 1255.56 1276.7 1277.56C1229.8 1305.66 1058.8 1406.46 1021.6 1431.36C984.2 1456.46 952.5 1484.86 912 1450.66" stroke="#351F5D" stroke-width="4" stroke-miterlimit="10" stroke-linecap="round" stroke-linejoin="round"/>
<path d="M1022.9 1251.26C966.1 1298.86 908.6 1345.66 852.2 1393.66C825.9 1416.06 804.6 1449.66 823.3 1482.16" stroke="#351F5D" stroke-width="4" stroke-miterlimit="10" stroke-linecap="round" stroke-linejoin="round"/>
<path d="M1285.3 1250.76C1287.8 1254.56 1281.5 1263.16 1271.3 1269.86C1261 1276.56 1250.7 1278.86 1248.2 1275.06C1245.7 1271.26 1252 1262.66 1262.2 1255.96C1272.4 1249.26 1282.8 1246.96 1285.3 1250.76Z" fill="#351F5D"/>
<path d="M1354.4 1244.86C1354.1 1244.56 1353.9 1244.26 1353.7 1243.96C1348.6 1236.96 1344.9 1222.16 1343.4 1213.76C1342.5 1208.86 1343.8 1203.66 1342.9 1199.16C1342.1 1195.26 1338.7 1188.76 1335.4 1186.36C1321.2 1176.16 1323.1 1196.36 1320.1 1208.16C1313.2 1192.26 1302.2 1187.06 1295.6 1207.06C1291.4 1199.86 1279.4 1196.26 1275.6 1205.66C1274.8 1212.76 1275.9 1213.86 1276.9 1220.66C1270.8 1216.76 1264 1210.76 1261.3 1218.96C1260.3 1231.36 1263 1247.96 1267.4 1259.56C1281.7 1297.06 1268.6 1362.26 1308.4 1339.06C1346.4 1316.96 1320.1 1283.16 1338.3 1283.26C1350.5 1283.36 1358.3 1274.36 1369.1 1270.76C1376.3 1268.26 1390.1 1274.66 1394.8 1266.16C1401.2 1254.66 1380.5 1249.96 1373.3 1249.56C1366.9 1249.16 1359 1249.96 1354.4 1244.86Z" fill="#E49D2C"/>
<path d="M1379.1 1200.06C1381.1 1202.76 1376.8 1209.26 1369.5 1214.46C1362.2 1219.66 1354.8 1221.76 1352.8 1218.96C1350.8 1216.26 1355.1 1209.76 1362.4 1204.56C1369.7 1199.36 1377.1 1197.26 1379.1 1200.06Z" fill="#351F5D"/>
<path d="M1424.7 1177.06C1426.3 1179.96 1421.4 1185.86 1413.6 1190.26C1405.8 1194.66 1398.2 1195.86 1396.5 1192.96C1394.9 1190.06 1399.8 1184.16 1407.6 1179.76C1415.4 1175.26 1423.1 1174.16 1424.7 1177.06Z" fill="#351F5D"/>
<path d="M1465.8 1155.56C1467.3 1158.56 1461.9 1164.16 1453.9 1168.06C1445.9 1171.96 1438.2 1172.66 1436.7 1169.66C1435.2 1166.66 1440.6 1161.06 1448.6 1157.16C1456.6 1153.26 1464.3 1152.56 1465.8 1155.56Z" fill="#351F5D"/>
<path d="M1224.5 1285.96C1227 1289.76 1220.7 1298.36 1210.5 1305.06C1200.2 1311.76 1189.9 1314.06 1187.4 1310.26C1184.9 1306.46 1191.2 1297.86 1201.4 1291.16C1211.6 1284.36 1222 1282.06 1224.5 1285.96Z" fill="#351F5D"/>
<path d="M1163 1323.96C1165.5 1327.76 1159.2 1336.36 1149 1343.06C1138.7 1349.76 1128.4 1352.06 1125.9 1348.26C1123.4 1344.46 1129.7 1335.86 1139.9 1329.16C1150.1 1322.46 1160.4 1320.16 1163 1323.96Z" fill="#351F5D"/>
<path d="M1101.3 1359.66C1103.8 1363.46 1097.5 1372.06 1087.3 1378.76C1077 1385.46 1066.7 1387.86 1064.2 1383.96C1061.7 1380.16 1068 1371.56 1078.2 1364.86C1088.4 1358.16 1098.7 1355.86 1101.3 1359.66Z" fill="#351F5D"/>
<path d="M1133.7 1335.06C1135.1 1346.66 1143 1339.86 1147.6 1334.16C1155.9 1323.96 1162.8 1311.66 1169.4 1300.36C1171.4 1301.16 1173.6 1302.26 1175.4 1303.66C1179.2 1298.76 1184.4 1294.36 1189.2 1290.66C1183 1286.96 1167 1275.26 1159.7 1278.46C1156.3 1279.96 1154.3 1286.96 1153 1289.96C1147.4 1302.96 1131.9 1319.56 1133.7 1335.06Z" fill="#E49D2C"/>
<path d="M1139.1 1337.06C1136.2 1336.46 1136.6 1334.76 1133.7 1335.06C1132.4 1334.06 1135.7 1313.26 1143.9 1319.96C1150.3 1325.16 1141.7 1332.16 1139.1 1337.06Z" stroke="#351F5D" stroke-width="4" stroke-miterlimit="10" stroke-linecap="round" stroke-linejoin="round"/>
<path d="M1180.1 1303.06C1176.7 1300.66 1174 1299.16 1170.3 1297.36C1174.8 1299.66 1153.3 1329.16 1151.2 1332.06" stroke="#351F5D" stroke-width="4" stroke-miterlimit="10" stroke-linecap="round" stroke-linejoin="round"/>
<path d="M1186 1270.26C1190.2 1269.46 1196.2 1266.96 1200.9 1265.16" stroke="#351F5D" stroke-width="4" stroke-miterlimit="10" stroke-linecap="round" stroke-linejoin="round"/>
<path d="M1190.4 1256.36C1190.1 1262.66 1184.2 1262.66 1179.1 1263.76" stroke="#351F5D" stroke-width="4" stroke-miterlimit="10" stroke-linecap="round" stroke-linejoin="round"/>
<path d="M1159.5 1274.86C1157.4 1281.66 1144.8 1305.16 1140.8 1310.96C1136.1 1317.96 1134.4 1325.46 1131.2 1333.06" stroke="#351F5D" stroke-width="4" stroke-miterlimit="10" stroke-linecap="round" stroke-linejoin="round"/>
<path d="M1277.7 1225.06C1273.1 1224.76 1267 1226.46 1266.7 1232.06" stroke="#351F5D" stroke-width="4" stroke-miterlimit="10" stroke-linecap="round" stroke-linejoin="round"/>
<path d="M1296.1 1215.06C1290.7 1213.56 1284.8 1217.66 1285.7 1223.66" stroke="#351F5D" stroke-width="4" stroke-miterlimit="10" stroke-linecap="round" stroke-linejoin="round"/>
<path d="M1316.6 1211.86C1313.1 1207.46 1303.8 1208.06 1304.1 1214.86" stroke="#351F5D" stroke-width="4" stroke-miterlimit="10" stroke-linecap="round" stroke-linejoin="round"/>
<path d="M1338 1206.96C1334.1 1204.56 1327.8 1204.66 1326.2 1210.56" stroke="#351F5D" stroke-width="4" stroke-miterlimit="10" stroke-linecap="round" stroke-linejoin="round"/>
<path d="M1386.5 1268.36C1383.4 1267.86 1379.9 1266.36 1381.1 1262.66C1382.8 1257.36 1388.3 1258.66 1392.3 1259.96" stroke="#351F5D" stroke-width="4" stroke-miterlimit="10" stroke-linecap="round" stroke-linejoin="round"/>
<path d="M1228.5 1201.36C1220.3 1221.56 1162.1 1216.96 1098.4 1191.16C1034.7 1165.36 989.8 1128.06 998 1107.86C1006.2 1087.66 1064.4 1092.26 1128.1 1118.06C1191.7 1143.96 1236.7 1181.16 1228.5 1201.36Z" fill="#F9CA66"/>
<path d="M1181.4 1185.66C1177.9 1194.16 1143.1 1188.06 1103.5 1172.06C1064 1156.06 1034.7 1136.16 1038.1 1127.56C1041.6 1119.06 1076.4 1125.16 1116 1141.16C1155.5 1157.26 1184.8 1177.16 1181.4 1185.66Z" fill="#351F5D"/>
<path d="M1583.2 1249.96C1577.4 1252.56 1570.7 1255.46 1564.6 1257.36" stroke="#351F5D" stroke-width="4" stroke-miterlimit="10" stroke-linecap="round" stroke-linejoin="round"/>
<path d="M1609.4 1327.56L1584.8 1287.56L1603 1282.46L1632.7 1335.66L1609.4 1327.56Z" fill="#351F5D"/>
<path d="M1131.8 1330.36L965.4 1423.16" stroke="#351F5D" stroke-width="4" stroke-miterlimit="10" stroke-linecap="round" stroke-linejoin="round"/>
<path d="M1263.9 1256.66L1166.3 1311.16" stroke="#351F5D" stroke-width="4" stroke-miterlimit="10" stroke-linecap="round" stroke-linejoin="round"/>
<path d="M1339.3 1306.56C1348.7 1257.56 1293.4 1265.36 1276.4 1273.16C1259.4 1281.06 1256.6 1286.36 1265 1302.46C1289.8 1299.46 1313 1297.56 1339.3 1306.56Z" fill="white"/>
<path d="M1372.7 1436.66C1367.3 1394.36 1363.4 1337.96 1344.5 1312.36C1263.6 1202.86 1217.2 1398.06 1208.3 1449.16C1190 1554.16 1215.2 1652.96 1331.6 1680.36C1421 1701.36 1525.3 1694.96 1606.4 1649.46C1649.7 1625.16 1713.8 1536.46 1678 1476.26C1639.3 1411.26 1453.2 1515.56 1395.5 1527.56V1527.46C1388.5 1496.56 1376.8 1468.86 1372.7 1436.66Z" fill="#3B5391"/>
<path d="M1554.4 1489.36C1523.2 1494.86 1428.3 1518.36 1395.4 1527.66V1527.56C1382.3 1493.26 1378.6 1483.66 1372.7 1436.66" stroke="#351F5D" stroke-width="4" stroke-miterlimit="10" stroke-linecap="round" stroke-linejoin="round"/>
<path d="M1228.7 1369.16C1167.1 1552.46 1204.5 1749.06 1517 1682.86" stroke="#351F5D" stroke-width="4" stroke-miterlimit="10" stroke-linecap="round" stroke-linejoin="round"/>
<path d="M1249.7 1439.46L1253.6 1369.06C1227.4 1455.86 1195.7 1538.86 1266.8 1613.76C1315.1 1664.66 1394.1 1677.86 1459.8 1659.06C1359.6 1625.26 1250.2 1567.36 1249.7 1439.46Z" fill="#351F5D"/>
<path d="M1381.4 1479.66L1554.4 1489.36L1393.6 1527.36L1381.4 1479.66Z" fill="#351F5D"/>
</svg>
