<svg width="22" height="19" viewBox="0 0 22 19" fill="none" xmlns="http://www.w3.org/2000/svg">
<path d="M12 0.999999C12 0.453124 11.5469 0 11 0C10.7344 0 10.4844 0.109375 10.2969 0.296874L5.09375 5.5H1C0.453125 5.5 0 5.95312 0 6.5V12.5C0 13.0469 0.453125 13.5 1 13.5H5.09375L10.2969 18.7031C10.4844 18.8906 10.7344 19 11 19C11.5469 19 12 18.5469 12 18V0.999999ZM18 9.5C18 7.9375 17.0469 6.40625 15.5781 5.82812C15.4531 5.76562 15.3125 5.75 15.1875 5.75C14.6406 5.75 14.1875 6.1875 14.1875 6.75C14.1875 7.9375 16 7.60937 16 9.5C16 11.3906 14.1875 11.0625 14.1875 12.25C14.1875 12.8125 14.6406 13.25 15.1875 13.25C15.3125 13.25 15.4531 13.2344 15.5781 13.1719C17.0469 12.5781 18 11.0625 18 9.5ZM22 9.5C22 6.32812 20.0938 3.375 17.1562 2.14062C17.0312 2.09375 16.8906 2.0625 16.75 2.0625C16.2031 2.0625 15.75 2.51562 15.75 3.0625C15.75 3.5 16 3.79687 16.3594 3.98438C16.7812 4.20312 17.1719 4.39062 17.5469 4.67187C19.0938 5.79688 20 7.59375 20 9.5C20 11.4062 19.0938 13.2031 17.5469 14.3281C17.1719 14.6094 16.7812 14.7969 16.3594 15.0156C16 15.2031 15.75 15.5 15.75 15.9375C15.75 16.4844 16.2031 16.9375 16.7656 16.9375C16.8906 16.9375 17.0312 16.9062 17.1562 16.8594C20.0938 15.625 22 12.6719 22 9.5Z" fill="white"/>
</svg>
