<svg width="50" height="45" viewBox="0 0 50 45" fill="none" xmlns="http://www.w3.org/2000/svg">
    <path d="M11.6954 43.1474L7.53966 38.9917C5.96805 37.4201 5.06889 35.4253 4.84583 33.3743C4.80218 33.1168 4.77964 32.8533 4.77964 32.5858V25.1443C3.95627 24.4484 2.77609 24.2406 1.72482 24.7078C0.25971 25.3588 -0.400203 27.0743 0.250862 28.5395L4.54222 38.1964C4.61684 38.3643 4.70542 38.5216 4.80602 38.6676C5.64332 40.1334 6.9723 41.3306 8.67069 41.9839L11.6954 43.1474Z" fill="#FFFFFF"/>
    <path d="M12.106 18.1264C13.3531 18.9707 14.1728 20.3988 14.1728 22.0183V22.2428L15.2394 21.1762L18.4038 12.9499C18.8024 11.914 18.2856 10.7511 17.2497 10.3526C16.2137 9.95411 15.0509 10.4709 14.6524 11.5068L12.106 18.1264Z" fill="#FFFFFF"/>
    <path d="M17.5723 18.8433L20.6164 10.93C21.0149 9.89402 22.1778 9.37727 23.2137 9.77577C24.1047 10.1185 24.6116 11.0266 24.4825 11.9331L17.5723 18.8433Z" fill="#FFFFFF"/>
    <path d="M21.1253 23.5112C21.5855 23.6509 22.0351 23.8352 22.4672 24.0642L32.335 14.1964C33.1199 13.4115 34.3924 13.4115 35.1772 14.1964C35.9621 14.9812 35.9621 16.2537 35.1772 17.0386L25.5453 26.6704L26.4927 27.6178L34.2298 19.8807C35.0147 19.0959 36.2872 19.0959 37.072 19.8807C37.8569 20.6656 37.8569 21.9381 37.072 22.7229L29.099 30.696C29.3279 31.1281 29.5122 31.5776 29.6519 32.0378L35.493 26.1967C36.2779 25.4119 37.5504 25.4119 38.3352 26.1967C39.1201 26.9816 39.1201 28.2541 38.3352 29.0389L24.5979 42.7762C21.6329 45.7412 16.8257 45.7412 13.8607 42.7762L8.80794 37.7234C7.52123 36.4367 6.79291 34.8031 6.62298 33.1236C6.59034 32.9493 6.57326 32.7695 6.57326 32.5858V22.0183C6.57326 20.415 7.87296 19.1153 9.47622 19.1153C11.0795 19.1153 12.3792 20.415 12.3792 22.0183V26.573L26.6506 12.3016C27.4355 11.5167 28.708 11.5167 29.4928 12.3016C30.2777 13.0864 30.2777 14.3589 29.4928 15.1438L21.1253 23.5112Z" fill="#FFFFFF"/>
    <path fill-rule="evenodd" clip-rule="evenodd" d="M33.4081 10.2216C33.4081 9.60241 33.9101 9.10049 34.5292 9.10049C35.248 9.10049 35.9598 9.24207 36.6238 9.51714C37.2879 9.79221 37.8913 10.1954 38.3996 10.7036C38.9078 11.2119 39.311 11.8153 39.5861 12.4794C39.8611 13.1434 40.0027 13.8552 40.0027 14.574C40.0027 15.1931 39.5008 15.6951 38.8816 15.6951C38.2625 15.6951 37.7606 15.1931 37.7606 14.574C37.7606 14.1496 37.677 13.7295 37.5146 13.3374C37.3522 12.9454 37.1142 12.5891 36.8141 12.2891C36.5141 11.989 36.1578 11.751 35.7658 11.5886C35.3738 11.4262 34.9536 11.3426 34.5292 11.3426C33.9101 11.3426 33.4081 10.8407 33.4081 10.2216Z" fill="#FFFFFF"/>
    <path fill-rule="evenodd" clip-rule="evenodd" d="M33.4081 5.47348C33.4081 4.85432 33.9101 4.3524 34.5292 4.3524C35.8715 4.3524 37.2007 4.61679 38.4409 5.13047C39.681 5.64415 40.8078 6.39707 41.757 7.34623C42.7061 8.29539 43.4591 9.42221 43.9727 10.6624C44.4864 11.9025 44.7508 13.2317 44.7508 14.574C44.7508 15.1931 44.2489 15.6951 43.6297 15.6951C43.0106 15.6951 42.5087 15.1931 42.5087 14.574C42.5087 13.5261 42.3023 12.4885 41.9013 11.5204C41.5003 10.5523 40.9125 9.67263 40.1715 8.93168C39.4306 8.19072 38.5509 7.60296 37.5828 7.20195C36.6147 6.80095 35.5771 6.59455 34.5292 6.59455C33.9101 6.59455 33.4081 6.09263 33.4081 5.47348Z" fill="#FFFFFF"/>
    <path fill-rule="evenodd" clip-rule="evenodd" d="M33.4081 1.12105C33.4081 0.501896 33.9101 -2.76189e-05 34.5292 -2.7646e-05C36.4431 -2.77296e-05 38.3383 0.376941 40.1065 1.10935C41.8747 1.84177 43.4813 2.91528 44.8346 4.2686C46.1879 5.62193 47.2614 7.22855 47.9939 8.99675C48.7263 10.765 49.1032 12.6601 49.1032 14.574C49.1032 15.1931 48.6013 15.6951 47.9822 15.6951C47.363 15.6951 46.8611 15.1931 46.8611 14.574C46.8611 12.9545 46.5421 11.351 45.9224 9.85479C45.3026 8.35862 44.3943 6.99917 43.2492 5.85405C42.104 4.70893 40.7446 3.80057 39.2484 3.18084C37.7522 2.5611 36.1487 2.24213 34.5292 2.24213C33.9101 2.24213 33.4081 1.74021 33.4081 1.12105Z" fill="#FFFFFF"/>
</svg>